<?xml version="1.0" encoding="utf-8"?>
<svg version="1.1" id="Layer_1"
xmlns="http://www.w3.org/2000/svg"
xmlns:xlink="http://www.w3.org/1999/xlink"
width="255px" height="358px"
xml:space="preserve">
<g id="PathID_1" transform="matrix(1.54243, 0, 0, 2.31929, 73.2, 4.6)" opacity="1">
<path style="fill:#FF0000;fill-opacity:1" d="M112.4 5.55L113.45 7.4Q113.95 8.4 114 9.5L114.45 10L114.8 10.6Q114.9 10.9 114.55 11.2L115.85 14.8Q116.4 16.7 116.3 18.75L116.9 19.8L117.1 21.05L116.95 21.2L117.25 23.7L117 26.15L116.75 28.6L116 30.75L114.95 32.75L114.1 34.4L113 35.9Q113 36.55 112.6 37.1L112.05 38.15L111.7 39.35L110.6 40.75Q109.9 41.4 109.1 41.6L108.6 42.1L107.95 42.35L107.3 42.55L107.05 42.5L106.85 42.65L106.7 43.1L106.7 43.55L105.75 44.55Q105.3 45 105.2 45.7L104.85 46.55L104.45 47.45Q103.55 48.6 102.3 49.55Q101.05 50.45 99.5 50.55L98.55 51.05L97.6 51.55L97.05 51.6L96.6 52L96.15 52.4Q95.4 52.7 94.75 53.2L93.45 54.1L92.05 54.9Q91.35 54.7 90.8 54.9L89.6 55.3L88.35 55.65Q87.65 56.1 87.4 56.8Q86.05 57.75 85.6 59.05Q85.1 60.35 85 61.85L84.6 64.8Q86.3 68.35 86.7 72.5Q87.1 76.7 86.5 80.8Q86.35 83.1 85.65 85.25Q85 87.45 83.75 89.25Q82.4 91.1 80.3 92.25Q78.75 93.4 77.8 95Q76.85 96.55 76.8 98.55L77.1 99.35L77.4 100.15L77.3 100L77.3 100.55L77.55 101.1Q78.75 102.4 79.4 103.95Q80.05 105.55 80.2 107.3L80.65 108.75L80.75 110.3Q80.65 111.05 80.1 111.6L79.55 118.05L78.3 124.3L76.6 129.4Q75.75 131.9 74.45 134.25Q73.05 136.55 70.8 138.4L70.6 138.95L70.25 139.4L69.85 139.3L70.9 136.05L71.8 132.7L70.15 134.75L68.6 136.95Q67.9 137.85 67.55 138.95L66.9 141.15L66.15 143.25Q65.7 143.75 65.55 144.4L65 145.5L63.25 147.2L61.35 148.6L59.2 149.5Q58.5 149.95 57.65 150.05L55.95 149.85L54.35 149.45Q53.1 148.9 52 148L50.25 145.85Q49.55 144.65 49.15 143.45L46.4 139.5L43.8 135.6L40.7 131.95Q40.9 133.5 41.5 134.95L42.9 137.7L44.3 139.9L43.95 140L43.6 139.9L42.05 137.95L40.2 136.25L38.55 134.4L37.65 133.05L36.6 131.9L35.65 129.5L34.8 127L34.35 125.35L33.85 123.75L33.5 122Q33.3 120.55 33.35 119.1L33.4 116.15L33.45 113.15L32.9 112.65L32.65 111.95L33 110.7L33.45 109.6Q33.2 109.3 33.35 109.05L33.65 108.65L33.95 108.25L35.4 105.45L37 102.75Q37.5 100.2 36.8 97.85Q36.05 95.55 34.45 93.6Q32.85 91.6 30.8 90.15Q29.05 88.3 28.1 86.1Q27.1 83.85 26.9 81.45L26.4 79.35Q26 78.35 26 77.15L25.9 76.35L25.9 75.55L25.8 74.35L25.95 73.25L25.9 72.1Q26.15 68.1 28.05 64.65L29 63.8Q29.5 63.4 30.1 63.15L30.4 62.85L30.75 62.65L30.95 62.25L32.15 61.35Q32.65 60.85 32.7 60.05L32.6 58.35Q32.5 57.5 31.75 57.05L31.9 56.2L31.45 55.4L31 54.6Q31.05 53.7 30.35 53.25L29.45 53.15L28.55 53.05Q28.05 53.1 27.7 53.4L26.15 53.25L24.85 52.35L23.7 51.3Q22.3 51.15 20.95 50.6Q20 51.2 18.8 51.1L16.55 50.6Q15.4 50.2 14.5 49.15Q13.55 48.1 13.2 46.9L12.4 46.1L11.65 45.3Q11.25 45.05 10.55 45.3Q9 44.45 7.85 43.2Q6.65 41.85 6.05 40.2Q5.5 38.6 5.5 36.8Q4.9 36.35 4.65 35.7L4.15 34.4L4.35 34.4L4.45 34.3Q3.55 34.2 3 33.7L2.2 32.4L1.65 30.85Q1.45 30.05 1.05 29.5Q0.8 28.9 0.9 28.3L1.2 27.2L1.3 26.05Q1.3 25.5 0.85 25.05L0.85 24.7L0.55 24.4L0.35 24.15Q-0.1 23.2 0 22.15Q0 21.05 0.25 20L0.7 17.95L1.25 16.55L1.5 14.95L1.3 14.15L1.35 13.15L1.85 11.5L2.45 9.85L3.2 9.25L3.55 8.4Q3.7 7.85 4.15 7.55Q4.35 6.55 4.9 5.7L6.05 4.05L8.1 2L10.4 0.25L10.4 0.4L11.05 0.25L11.65 0Q11.95 -0.05 12.3 0.35L12.3 0.65Q12.05 0.95 12.05 1.4L11.8 2.2L11.65 3.05L11.5 3.9L10.4 5.2L9.3 6.55L9 7.45L9.05 8.4Q9.45 8.75 9.35 9.15L9.05 10.05Q8.95 10.4 9.2 10.85Q8.9 11.2 9 11.65L9.25 12.5L9.6 13.25L9.6 14.25Q9.6 14.75 9.95 15.05Q10.3 15 10.4 15.3L10.55 15.85L10.55 16.4L10.6 16.9Q10.65 17.1 11.05 17.15L12 18.5Q12.35 19.25 12.35 20.15L13.2 21.1Q13.65 21.65 14.35 21.65L15.3 22.7L16.4 23.55L17.7 23.8L19.25 24.7L20.6 26.05L21.25 26.25Q21.7 26.35 21.95 26.55L23.5 26.65Q24.2 26.75 24.75 27.35L26.4 26.75Q27.2 26.3 27.6 25.45Q28.45 24.8 29.45 24.55L31.3 23.9L35.35 20.95Q37.35 19.6 39.45 18.35Q41.6 17.1 43.85 16.25L47.05 15.45L50.3 14.8Q52 14.6 53.8 14.8L55.5 12.95L57.25 11Q58.55 10.2 60.1 10.2L63.2 10.55L65 12.25L66.4 14.2L66.8 14.2L67.15 14.35L69.1 14.5L70.9 14.8L72.8 15Q73.45 15.6 74.4 15.85Q75.25 16.15 76.1 16.65Q78.4 17.95 80.6 19.7Q82.85 21.4 84.6 23.45Q86.4 25.6 87.4 28.1L88.2 28.2L89.05 28.1L89.95 28.9L90.55 29.85L91.3 30.05L92.05 30.3L92.75 30.3L93.25 29.9Q93.45 29.65 93.85 29.7Q94.3 28.85 95.05 28.2L96.65 27L97.95 26.85L99.25 26.95Q99.9 26.85 100.45 26.35L101.05 25.9L101.55 25.3Q101.8 25.05 102.15 24.95L103.1 24.2L104.2 23.85L105.1 23.05L105.55 21.85L106 20.6Q106.25 20.05 106.95 19.75L108 18.05L108.5 16.1L109.25 15.2L109.55 14.1L109.9 13L109.75 11.65L109.55 10.2L109.55 7.05L109.9 6.25L109.6 5.35L109.25 4.45L108.7 3.25Q108.4 2.55 108.6 1.9L110.25 2.4Q111.05 2.8 111.5 3.65L112.4 5.55M111.95 6.1Q110.9 5 110.85 3.5Q110.4 3 109.8 2.7L110.1 3.85L110.55 4.9L111.05 5.9L111.25 6.65L111.4 7.3Q111.45 7.7 111.8 7.95L112.1 8.35Q112.3 8.6 112.05 8.75L112.15 8.95L112.25 9.15L112.65 9.4L113.1 9.65L113.55 9.55Q113.55 8.5 113.15 7.65L112.1 6.05L112.05 6L111.95 6.1M111.55 10.75L111.3 10.1L110.75 9.55L110.75 10.7L111 11.75L111.2 11.7L111.6 12.7L111.55 13.65L111.25 13.45L111.25 13.05L111.05 12.7L110.9 13.8L111.55 15.45L112.3 17.15Q112.75 18.05 113.65 18.45L115.5 19.05Q115.9 18.55 115.95 17.9L115.85 16.6L115.5 15.4L115.3 15.3L114.7 14.45L113.9 14.05L112.95 13.65L112.7 13.2L112.65 12.75L113.45 12.95L114.2 13.05L113.95 12.35Q113.65 11.8 113.15 11.6L112.15 11.2L111.55 10.75M110.8 16.15Q109.55 16.8 108.95 17.9Q108.3 19.05 108.2 20.4Q108.6 20.95 108.45 21.4L108.1 22.45Q107.9 23 108.05 23.55Q108.45 26.1 109.65 28.35Q110.85 30.6 113.15 32.1L114 32.05L114.65 31.6Q115 31.3 115.4 31.1L116.05 29.45Q116.05 28.35 116.2 27.2L116.4 24.85L116.3 24.55L116.05 24.4L115.75 23.35L115.25 22.4Q114.1 22 113.45 21.1L112.3 19.15L111.9 18.65Q111.75 18.45 111.9 18.1L111.25 17.15L110.8 16.15M109.6 19.85Q109.45 20.35 109.45 20.8L109.45 22.5L109.55 24.3L109.65 24.6L109.6 24.95L109.1 24.6L108.65 24.35L108.75 22.6L108.6 21Q108.5 20.25 108.65 19.6L109.15 18.4Q109.7 18.55 109.7 18.95L109.6 19.85M107.05 23.9L106.9 24.55L106.45 25.15L106.35 26.7L105.85 28.05L105.45 27.8Q105.2 27.7 105.2 27.4L105.6 25.15Q105.85 24.05 106.6 23.2L106.75 23.6L107.05 23.9M107.15 23.4L107.05 22.6L106.95 21.9Q106.2 22.85 105.9 23.9L105.1 26Q104.75 27.95 104.55 30.1Q104.3 32.25 104.35 34.35Q104.4 36.5 104.85 38.4L105.4 39.75L106.05 41.05Q106.4 41.7 107.15 42L108.95 40.55L110.5 38.9L110.55 38.45L110.8 38.05L111.25 35.8Q111.4 34.6 110.95 33.55L110.5 32.1L109.65 30.85L109 29.5L108.35 27.7L108 25.8L107.55 24Q107.2 23.8 107.15 23.4M98.1 30.35L98 28.9L96.95 28.45Q95.5 29.15 94.45 30.3Q93.35 31.45 92.7 32.8Q92 34.25 91.75 35.7L91.95 35.4L92.05 35.05L92.4 34.95L92.5 35.2Q92.1 37.05 91.15 38.65L90.55 40.95L89.7 43.1Q89.4 44.7 89.5 46.4Q89.55 48.05 90.2 49.55Q90.8 51.05 92.25 52L92.45 51.35L92.7 50.7Q92.8 50.45 93.2 50.45L93.3 50.75Q93.35 50.9 93.5 50.9L93.6 49.95Q93 48.4 93.65 46.9L93.95 47.65L93.95 48.55Q93.9 49.25 94.2 49.9L94.8 51.05Q95.35 49.95 95.2 48.65L94.85 46.25Q94.3 43 94.9 39.7Q95.5 36.45 96.9 33.65L97.15 33.15L97.3 32.6Q97.4 32.4 97.65 32.35L98.35 30.4L98.25 30.4L98.1 30.35M100.1 28.15L99.9 28.55L99.8 28.95Q98.45 31.25 97.65 33.8L96.3 38.95L96.15 39.95L96 40.9L96.15 42.75L96.45 44.55Q96.7 45.4 97.25 46.15L98.55 47.5L100 48.55L102.05 47.5L102.25 47.1L102.5 46.75L103.1 44.6L103.4 42.35Q103 40.2 103.05 38.1L103.15 33.75L103.4 31.65Q103.45 30.55 103.8 29.6Q103.75 29.05 103.85 28.55L104.2 27.6L104.3 26.5L104.2 26.55L103.55 25.95L102.7 26.1L101.9 26.3L101.3 26.8L101 27.5L100.45 28.1L100.1 28.15M100.65 28.4L100.95 28.25L101.35 28.8L101.6 29.35L101.35 29.95L100.05 31.85L99 33.75L98.6 34.9L98.15 35.95L97.85 36L97.65 35.75L98.3 33.8Q98.65 32.8 99.15 31.95Q99.4 30 100.7 28.5L100.65 28.4M89.85 29.3Q89.65 29.15 89.35 29.15L86.3 29.35L83.45 29.9L80.4 32.15Q79.2 33 78.4 34.1L77 36.4L75.8 38.8L75.7 39.4L75.4 39.95L75.15 41.1L74.7 42.3L74.5 43.4L74.15 44.5L73.9 44.6L73.7 44.45L73.8 43.4L73.85 42.35L74.45 39.5L74.75 37.75L75 36.05L75 34.1L74.65 33.6L71.5 32.45L71.25 32.2L71.2 31.9Q69.85 30.85 69.3 29.4Q68.7 28.05 68.5 26.5L68.2 23.25L67.75 20.15L67.4 19.65L67.3 19.15L67.4 19.3L67.55 19.35L66.7 16.8L65.6 14.4L64.45 13.25L63.15 12Q62.45 11.45 61.7 11.15L59.3 11.45Q58.15 11.9 57.15 12.7L55.4 14.55L53.8 16.5L53.2 17.7L52.6 19Q52.35 19.65 52.4 20.45L52.15 20.75L51.7 20.95L50.3 23.95L48.55 26.85Q47.65 28.2 46.35 29.3Q45.05 30.35 43.35 30.85Q42.95 31.5 43 32.3L43.15 33.85L43.65 35.7L44 37.6L44.25 39L44.5 40.3L44.5 41.65L44.25 41.75L44.05 41.6L43.5 39.45L42.85 37.3Q42.7 36.15 42.2 35.15L41.25 33.15L40.25 31.2Q39.85 30.9 39.7 30.4L39.05 29.6L36.9 27.5Q35.65 26.65 34.25 26.1L31.4 25.25L30.45 25.4L29.4 25.5Q28.85 25.65 28.65 26.25L32.05 29.4Q33.65 31.1 34.55 33.1L35.75 36.8L37.15 40.5Q37.8 42.35 38.1 44.3Q38.4 46.25 38 48.45L36.7 52L35.3 53.3L33.5 53.85L32.8 53.65L32.15 53.75L32.5 54.55L32.9 55.35L33.6 55.8L33.8 55.6L37.1 55.15Q38.7 54.7 39.95 53.55L40.7 52.6L41.4 51.55L41.7 51.2L41.9 50.7L42.15 50.2Q42.25 50.35 42.35 50.3L42.55 50.4L41.95 52.25L40.65 53.95L39.25 55.35L39.15 55.2L38.1 55.85L37.05 56.4L38.8 55.85L40.4 54.95Q41.15 54.4 42 54L42.4 53.6L42.85 53.05Q43.05 52.8 42.85 52.5Q43.4 51.75 43.45 50.8L43.6 49Q43.7 48.05 44.3 47.4L44.35 46.85Q44.25 46.6 44.4 46.3Q44.7 46.4 44.8 46.65L44.8 47.15L44.85 47.65Q44.7 47.9 44.8 48.15L44.85 48.6L44.6 49.6L44.8 50.65L45.1 51.65L45.6 51.3L45.7 50.7L45.75 50.75L45.9 50.9L45.85 51.1L48.05 51.05L50.1 51.6L50.25 51.25L49.3 50.75Q48.75 50.55 48.2 50.75L47.8 50.55L47.5 50.3Q47.6 50.1 47.75 50.2L48 50.25Q49.3 50.2 50.4 50.75Q51.5 51.3 52.25 52.4L53.2 53.95Q53.65 54.75 53.8 55.7L53.65 55.9L53.6 56.15L54.2 56.85L54.45 57.75L54.15 58.1L53.75 58.25L53.5 57.75L53.4 57.2L53.15 56.6L53.1 56.9L52.05 55.05L50.6 53.4Q49.85 52.6 48.95 52.15L47.7 52.05L46.55 51.8L45.4 52.05L46.1 52.8L46.8 53.6L48.05 53.9L49.35 53.95L50.3 54.75L51.15 55.75Q52.6 58.55 53.3 61.7Q54 64.85 53.85 68.25L53.6 68.6L53.15 68.65L52.7 68.65Q51.3 67.6 49.8 66.9L46.7 65.65L43.5 64.45L39.75 63.2L35.7 62.6Q33.65 62.6 31.6 63.15L30.5 64.15L29.2 64.95L29.1 65.05L29 65.1Q28.1 66.8 27.5 68.5Q26.9 70.3 26.8 72.25L26.8 73.2L26.7 74.15L26.8 75.15L26.9 75.15L26.95 75.2L27.05 75.25L26.9 75.5L27.05 75.5L27.1 76.95L27 78.4L27.35 79.2L27.5 80.1L27.95 80.9L28 82.2Q28.3 84.1 29.15 85.85Q29.95 87.65 31.35 89.15L32.15 89.45Q33.15 90.6 34.45 90.8Q35.85 91.05 37.2 90.8L39.95 90.25Q40.9 89.7 41.9 89.25Q42.9 88.75 43.9 88.4L47.5 86.75Q49.2 85.75 50.5 84.2Q50.7 84.6 50.5 84.85L49.95 85.45Q49.65 85.65 49.6 86.05L44.55 92.6Q42.15 95.85 40.1 99.4L39.85 99.45L38.6 101.2Q37.95 102.05 37.55 103.05Q36.6 104.1 36.1 105.35L35.05 107.9L36 107.8L36.95 107.85L37.9 107.8L38.15 107.85L38.2 108.2Q38.75 108.15 39.1 108.6L38.05 108.85L36.9 108.8L35.85 108.9L34.45 110.05Q33.85 110.65 33.75 111.6L34 112.15L34.25 112.55Q35 111.5 36.05 111.05Q37.15 110.6 38.45 110.7Q39.2 110.95 39.85 111.55L40.95 112.9L41.45 112.35L41.9 111.8Q41.45 109.8 41.7 107.75Q42.05 105.75 42.8 103.95L42.8 105.2L42.8 106.45L42.8 107.2L42.65 107.85L42.65 108.6Q42.7 108.9 43.1 109.05Q43.35 109.35 43.55 109.25L44 109.05L44.45 109.05L44.4 108.35Q44.3 108 44.35 107.5L44.75 106.25Q45 105.6 45.4 105.1L45.85 105.65L45.35 107L45.05 108.3L45.9 107.6L46.8 107.5Q47.3 107.6 47.65 107.85L47.75 108.3L47.6 108.7L47.3 108.45L46.95 108.3L46.35 108.15L45.9 108.4L45.6 108.7L45.55 109.05L45.7 109.05L45.95 109.15L45.55 109.5L45.15 109.6L46.6 113.8Q46.8 112.55 47.15 111.35L47.85 108.9Q47.85 108.4 48 108L48 107.15L49 104.35L49.5 104.95L49.85 105.75L50.4 105.9L50.9 106.15L51.05 106.4L50.9 106.6L50.2 106.45L49.55 106.65L49.15 107.05Q48.95 107.25 49 107.55L49.65 107.25L50.75 107.2L51.65 107.75L52 105.9L52.2 105.2Q52.25 104.85 52.55 104.65L52.65 105L52.65 105.35Q52.45 105.65 52.55 105.9L52.75 106.35L52.9 106.85L53.8 106.75L54.7 106.7Q55.1 106.75 55.45 107.2L55.55 107.6L55.8 107.85L55.85 106.55Q55.85 105.85 56.2 105.25Q56.7 105.5 56.85 106.05L57 107.1L58.05 107.3Q58.6 107.35 58.9 107.9L59.2 106.45L59.6 105.05L59.75 105.2L59.85 105.3L60.05 105.05L60.1 105.2L60.15 105.4L59.95 106.45L59.95 107.5Q60.6 107.05 61.4 107.15Q62.1 107.3 62.7 107.6L63.2 106.35L63.45 105.1L63.75 105.15L63.95 105.35L63.9 106.05L64.15 106.6L64.3 107.3L65.2 107.15L65.85 107.25L66.45 107.75L67.05 107.95Q67.35 108.25 67.15 108.55L66.95 109.2L68 108.05Q68.6 107.55 69.5 107.65L69.8 107L70.05 106.2L69.7 104.55L69.15 103L68.8 101.4L70.75 105.15Q71.65 107 72.2 109.1L73.55 108.35Q74.25 107.95 75 107.8Q76.05 107.65 76.85 108.1L78.4 109.1L79.8 110.3L79.65 108.8L79.15 107.5L77.7 106.7Q76.95 106.3 76.1 106.25L75.7 106.3L75.35 106.4L75.05 106.2L74.95 105.95L75.05 105.7L76.25 105.55L77.45 105.45Q78 105.45 78.45 104.95Q78.65 104.2 78.4 103.65L77.85 102.5L77.3 101.4Q75.5 98.7 73.35 96.2L68.8 91.6Q66.35 89.4 63.6 87.8L63.55 87.75Q63.5 87.3 63.65 87.4L63.95 87.6L64.3 87.75L64.05 87.55L63.75 87.3Q63.9 86.8 63.65 86.55L62.95 86.2L62.3 85.9L62.5 85.6L65.35 86.65L68.1 87.9Q68.9 88.5 69.8 88.8L71.65 89.4L73.45 90L75.6 90.35L77.75 90.7L80.05 90.6Q81.5 89.9 82.4 88.7L84.15 86.2L85.65 83.55Q86.1 80.85 86.15 78.05Q86.2 75.2 85.75 72.45Q85.35 69.65 84.35 67.25L83.75 66.05L83.25 64.8Q82 63.4 80.45 62.85L73.5 63.35Q70.25 64.15 67.25 65.7Q64.25 67.25 61.45 69.2L61.1 69.15L60.95 68.85L61.1 68.75L61.35 68.65Q61.9 66.15 62.7 63.75Q63.4 61.35 64.5 59.1Q65.65 56.9 67.4 54.9Q67.8 54.6 68.35 54.5L69.35 54.3L70.3 53.95L71.2 54.05L72.05 53.85L72.4 53.05L72.4 52.05L72.7 49.75L72.55 47.4Q72.7 47.2 72.9 47.25L73.2 47.7L73.5 48.15L73.55 48.7L73.75 49.5L73.75 50.4Q73.85 50.8 74.25 51Q74.75 52.35 75.6 53.4L75.8 53.3L75.65 52.05L75.4 50.95Q75.3 50.35 75.45 49.75L75.65 49.9L75.8 50.1Q75.95 51.15 76.4 52.1L77.5 53.85L77.8 54.6L78.25 55.15L78.35 55L79.05 55.75L79.75 56L80.5 56.2L81.3 56.05L81.95 56.05L82.6 56.4L83.25 56.6L83.25 56.45L83.15 56.35L82.5 56.1L82.05 55.65L82.5 55.8L82.1 55.35L81.8 54.85L83.65 55.7L83.4 55.35Q83.35 55.2 83.05 55.2L82.35 54.1L81.55 53.05Q81.2 52.5 81.15 51.85Q81.3 49.65 81.9 47.7L82 47.7L82.7 49.95L83.7 52Q84.1 52.75 84.8 53L86.3 53.2L86.65 53.35L87 53.55L87.5 53.05L87.75 52.5L87.95 52.35L88.3 52.3L87.9 49.15Q87.8 47.5 88 45.95Q88.6 43 89.55 40.2L91.1 34.5L90.85 34.35L91.1 33.05Q91.2 32.4 90.95 31.8L89.5 31.4L88 31.35L88.55 30.65Q88.85 30.3 89.3 30.25Q89.45 30 89.7 30L90 29.7L89.85 29.3M82.2 28L82.2 26.35Q82 24.4 81 22.8L78.85 19.7L75.8 17.35Q74.3 16.25 72.45 15.95L70.9 16.2Q70.05 16.3 69.4 16.75L68.75 17.7Q68.45 18.2 68.6 18.8Q68.45 18.95 68.45 19.25L68.5 19.65L68.35 20.1L68.8 21.9L69.25 23.7Q69.1 24.55 69.25 25.25L69.65 26.75L69.9 28.3L72.5 31.05Q73.65 31.7 75.05 31.8L77.75 31.65L77.9 31.8Q78.95 31.5 79.9 30.8L81.8 29.55L82.2 28M85 35.95L83.9 37.25Q83.35 37.95 83.2 38.8L83 41.45L82.9 41.3Q82.75 41.5 82.7 41.3L82.6 41Q82.35 39.65 82.6 38.55Q82.9 37.35 83.6 36.35L85.1 34.35Q85.4 33.55 86.1 33Q86.8 32.45 87.5 32.05L87.85 32.3L88 32.6L87.7 33L87.25 33.35L85.95 34.45L85 35.95M82.15 70.75L82.5 72.75L82.5 76.7L82.3 80.95L81.75 82.5L80.85 83.95L79.5 84.85L76.1 84.15L72.8 83.05L69.6 82.05L66.15 80.8L64.05 79.75L61.8 78.9Q60.7 78.45 59.7 77.8L59.2 77.3Q59.2 76.6 59.5 76L60.3 74.95L61.15 73.85L61.15 73.55Q63.5 71.65 66.25 70.6Q68.95 69.45 71.8 68.85L77.6 67.55Q79.65 67.5 81 69.05Q81.85 69.7 82.15 70.75M81.5 85.95L80.95 86.2L80.8 86.65L80.4 87L80 87.1L79.65 87.4L79.6 87.35L76.85 87.7L74 87.55L71.15 87L69.8 86.9L68.45 86.4L67.05 86L65.9 85.1L64.65 84.5L63.5 83.6Q63.05 83.55 62.75 83.3L62.15 82.8L61.4 82.5L61.15 82.2Q61 82.15 61.1 81.9L60.35 81.3Q60 80.95 59.55 80.9L59.3 80.75L59.2 80.5L58.8 80L58.55 79.4L60.95 80.9Q62.1 81.7 63.45 82.15L64.1 82.3L64.7 82.75L67.45 83.7L70.1 84.8L71.35 85.15Q71.9 85.45 72.55 85.55Q73.45 86.05 74.55 86.2L76.55 86.25L77.65 86.35L78.75 86.4Q79.35 86.3 79.75 85.9L81.1 85.45Q81.7 85.1 81.85 84.35L81.95 85.2L81.5 85.95M47.2 16.3L45.6 16.65Q44.85 16.8 44.15 17.25L44.85 17.25L43.1 18.05L41.25 18.85L40.05 19.85L38.65 20.7L37.65 21.6Q37.05 22.1 36.95 22.75L36.6 24.1L36.4 25.45L36.65 25.45L36.6 25.95L36.55 26.45Q37.25 27.2 38.25 27.55L40.1 28.1L41.05 28.45L42.05 28.6L42.95 28.9L44.35 28.75L45.45 27.9L46.85 26.95L47.9 25.6L48.85 24.2L48.3 24.5L49.05 23.5L49.9 22.5L50.3 21.65L50.95 20.9L51.1 20.25L51.35 19.7L51.2 17.9L50.55 16.35Q50.15 16.05 49.65 16.05L48.65 15.9L47.2 16.3M11.3 0.7L9.2 2L7.3 3.8L6.8 4.6L6.25 5.35Q6 5.75 6 6.25L6.25 6.25L6.55 6.35L6.2 6.55L5.85 6.6Q5.65 6.75 5.7 6.95L6.05 7.05L6.4 6.95L6.35 6.8L7.55 5.8L8.75 5.5L9.65 4.6L10.55 3.7L11.1 2.2L11.3 0.7M3.05 11.25L2.1 12.95L1.75 13.2L1.8 13.9L1.85 14.55Q2.6 14.75 3.25 14.55L4.35 13.9L5.5 13.05Q6.05 12.6 6.65 12.45L6.6 12.1L6.8 11.8L7.65 11.5L8.1 10.7L8.4 9.85Q8.2 9.5 8.3 9L8.35 8.05Q8.15 7.5 7.8 7.5L7 7.7L6.25 8Q6 8.05 5.85 8.25L5.45 8.45Q4.6 8.95 4 9.75L3.05 11.25M7.7 12.65Q7.5 12.5 7.3 12.65L7 12.85L6.7 13.15L4.95 14.7Q3.95 15.45 3.2 16.3Q2.4 17.1 2.2 18.2Q1.65 18.75 1.5 19.55L1.15 21.15Q0.8 21.8 0.85 22.65L0.9 24.2L1.75 24.5L2.7 24.4L5.85 21.6Q7.4 20.05 8.25 18.15L8.15 17.6Q8.55 16.65 8.55 15.5L8.35 13.3L7.9 13.1L7.7 12.65M8.3 15.4L8.35 15.6L8 17.3L7.25 18.85L6.95 19L6.55 19.1L7.25 17.3Q7.5 16.35 7.2 15.4L7.35 15L7.55 14.65L7.95 14.65L8.25 14.85L8.25 15L8.1 15.1L8.05 15.25L8.3 15.4M9.2 18.3L8.9 18.75L8.75 18.6L8.5 18.6L8.3 18.8L7.4 20.35L6.2 21.8Q5.6 22.45 5.15 23.25L5.1 23.55L5.05 23.8Q4.3 24.65 3.8 25.65L2.8 27.55Q2.45 28.35 2.55 29.2L2.7 30.85L2.85 32.5L3.65 32.8Q4.15 32.85 4.45 33.05Q4.8 33.2 4.85 33.7L4.75 33.75L4.15 33.55L3.65 33.5L3.6 33.65L4.75 33.75L5.85 33.85L6.7 33.1L7.3 32.2L8.05 31.4L9.6 29.15L10.55 26.55Q10.95 25.15 11.5 23.9L11.2 23.75L11.4 22.25L11.8 20.85L11.3 19.7L10.7 18.55Q10.35 18.05 9.7 17.9L9.2 18.3M9.5 19.15L9.75 18.7Q10.35 19 10.6 19.65L10.9 21L10.95 22.75L10.6 24.4Q10.45 24.35 10.45 24.45L10.3 24.5L10.2 23.55L10.35 22.45L10.2 21.5L10.05 21.5L10 20.8L9.9 20.15Q9.8 19.8 9.4 19.7Q9.3 19.4 9.5 19.15M12.1 24.3L11.1 26.5L10.2 28.8L9 31L8.7 33L8.05 35.05Q7.7 36.45 7.65 38Q7.6 39.5 7.8 41Q7.75 41.6 8.05 42.05L8.65 42.95L9.1 43.9L10.35 44.65L11.75 44.85L13.1 43.8L13.65 42.3L14 40.6L14.25 39.7L14.45 38.7Q14.55 38.2 14.9 37.8Q15.2 35.8 15.65 33.7L16.2 29.65Q16.3 27.55 15.75 25.6L14.9 24.2L13.85 22.9L13.25 22.85Q12.9 22.95 12.7 23.3Q12.4 23.35 12.35 23.7L12.1 24.3M13.85 23.8Q14.8 25.2 15.1 26.75L15.35 29.95L15.15 30.55L14.9 29.35L14.85 28Q14.25 26.1 12.8 24.6L13.2 24.1Q13.45 23.85 13.85 23.8M18.05 26.9L17.45 26.2L18 25.9L18.55 25.8Q18 25.3 17.25 25.2L17.25 26.4L17.15 27.45Q17.25 29 16.9 30.4L16.15 33.2Q15.75 34.55 15.7 36.1L15.55 37.1L15.6 38.1L15.4 39.1L15.2 40.55L14.95 42.1L15 43.1L14.8 44.1Q14.7 44.6 14.95 45.1L15.45 46.9Q15.75 47.85 16.55 48.45L16.85 48.5L17.15 48.55Q18.3 48.45 19.2 47.7Q20.1 46.95 20.45 45.85L20.9 45.3L21.15 44.6L21.5 44L21.6 44.2L21.7 44.35L20.9 46.75Q20.55 47.95 19.6 48.95L21.15 47.4L21.8 45.35L22.1 43.2L22.25 43.1L22.05 42.45L22.3 40.6Q22.45 39.7 22.75 38.9L22.65 36.1L22.35 33.35Q22.15 31.95 21.6 30.75Q21.45 30.9 21.45 31.2L21.2 31.6L20.15 29.5L18.8 27.6L18.05 26.9M30.4 29.45L29.85 29.1Q29.6 28.9 29.65 28.7Q28.7 28 27.6 27.6L27 27.8L26.55 28.25L27.5 29.65L28.2 31.1L28.65 32.05L29 33L29.7 33.85L30.6 37.15L31.25 40.55L31.25 41.65Q31.15 42.2 31.4 42.7L31.4 43.05L31.3 43.35L31.5 46.15L31.5 49.05Q31.1 49.65 31 50.45L31.45 50.8L31.95 50.95L32.3 50.3L32.8 49.7L32.9 49.7L33.05 49.7L32.7 50.55L32.35 51.25L32.85 51.4L33.5 50.6L34.15 49.85Q35.15 48.55 35.75 47.05L36.85 44.1L37.05 43.4L37.25 42.65Q37.4 42.2 37.2 41.75L36.1 38.75L35.1 35.75Q34.55 34.25 33.35 33Q33 31.9 32.25 30.95Q31.55 29.95 30.5 29.35L30.4 29.45M21.65 28.75Q22.6 31.25 22.9 34.1Q23.3 36.9 23.2 39.8L22.85 45.6L22.45 47.4L22.2 49.1L22.45 48.7Q22.7 48.55 22.5 48.25L22.7 47.95L22.75 47.55Q22.75 47.35 23 47.3L24.15 49.4Q24.8 50.45 25.95 50.85L26.9 50.75L27.6 50.15L28.25 49.4L28.75 48.2L28.95 46.95L30 44.15Q30.4 42.8 30.45 41.1L30.75 41.3L30.45 38.5L29.8 35.85L29.1 35.3L28.6 34.7L28.45 34.45L28.55 34.25L27.4 31.65Q26.8 30.35 25.9 29.15L24.7 28.45L23.4 27.85L22 27.95L21.85 28.85L21.65 28.75M22.6 28.2L23.3 28Q23.9 28.15 24.35 28.6L25.15 29.55L25.9 30.55L26 31.1L25.9 31.6L25.8 31.55L25.15 30.6Q24.85 30.05 24.35 29.95Q23.9 29.85 23.55 29.55L22.95 28.95Q22.65 28.7 22.15 28.7Q22.3 28.3 22.6 28.2M39.8 50.1L39.85 50.3L39.8 51.1L39.5 51.75L39.2 52.5Q38.6 53.55 37.4 53.75L36.05 54.5Q35.25 54.7 34.55 55.05L34.1 54.9L33.8 54.55L34.05 54.25L34.45 54.05L36.05 53.4L37.6 52.75L38.5 51.2L38.6 51.35L38.55 51.55L38.6 51.65L39.55 49.8L39.6 49.9L39.8 50.1M36.25 59.4Q36.1 59.75 36.25 60.3L36.4 61.35L37.55 61.95Q38.1 62.35 38.8 62.4L42.2 62.75L45.45 63.45L46.6 63.5L47.65 63.95L48.75 64.25L49.1 64.45Q49.2 64.7 49.45 64.55L50.3 65.15L50.35 65.05L50.65 65.4L50.75 65.25L51 65.85L51.35 66.3L51.75 65.95L51.85 65.4L52 64.75Q51.95 64.35 52.25 64.15L52.3 63.8Q52.25 63.55 52.35 63.4L51.6 60.8L50.9 58.25Q50.4 57 49.4 55.95Q48.6 55.3 47.65 55.25L45.65 55.15Q45.05 55.1 44.65 55.4L43.85 56.15L43 56.85Q41.55 58.05 39.85 58.7L36.25 59.4M40.05 66L38.4 65.8L36.8 65.4L35.05 65.25L35.25 65.1L35.45 65.1L37.8 65.3L40.05 66M39.05 66.85Q42.35 68.05 45.25 70L51.05 74.1Q51.5 74.15 51.75 74.5L52.1 75.2L52.6 75.95Q52.5 77.1 52 78.05L50.55 79.95Q49 81.2 47.1 81.75Q43.55 83.95 39.85 85.55L36.35 86.1L35.3 85.8L34.3 85.55Q33.35 85.35 32.75 84.7Q32.05 84.05 31.65 83.2L31 81.5Q30.75 79.3 30.8 77.05L30.9 72.55L31.1 70Q31.2 68.7 31.65 67.5Q32.45 66.65 33.65 66.5Q34.85 66.3 36.15 66.5L38.45 66.95L39.05 66.85M31 84.55L31.85 85.6L32.8 86.6Q33.35 87.1 34.05 87.15L35.85 87.45L37.75 87.35L39.4 87.3L41.05 86.9L42.7 86.45L44.85 85.45L47 84.45L48.95 83.15L49.2 83.05L49.45 83.1Q49.25 83.1 49 83.3L48.7 83.65L47.1 84.9Q46.3 85.35 45.5 85.95L44.3 86.35L43.25 87.05L42.75 87.5L42.15 87.8Q41.55 87.9 41.05 88.15L40.1 88.65L39.15 89.1Q38.45 89.55 37.6 89.55L35.9 89.35L34.25 89.05L32.65 87.95L31.7 86.4L30.7 84.7L30.25 84.15L29.95 83.5L29.8 83.2Q29.6 83.15 29.5 82.95L29.75 82.65L30.45 83.55L31 84.55M40 97.65L40.9 96.4L41.7 95.05L42.55 94.05Q42.85 93.35 43.3 92.8L43.35 92.5L43.5 92.15L43.55 92.35L44.5 91.2L45.35 89.8L45.15 89.45L45.05 89.1L44.85 89.2L44.65 89.25L43.55 89.8L42.35 90.2L41.3 91Q40.7 91.9 40.55 93.05Q40.35 94.15 40.3 95.35L40 97.65M70.5 52.3L69.5 52.7L68.4 52.8L66.9 53.25Q66.1 53.4 65.45 53.85L64.9 54.2L64.45 54.6L63.85 55.2L63.5 55.95L62.9 56.45Q62.8 56.15 62.95 55.85L63.4 55.2L63.45 54.5L64.2 53.45L65.05 52.45Q65.5 52.05 66.25 51.9L68.3 51.95L70.3 52.15L70.5 52.3M63.15 69.95L65.35 69.1L65.85 69.1Q66.1 68.9 66.4 68.85L68.05 68.4L67.3 68.95L66.35 69.35L64.7 69.95L63 70.55Q62.6 70.8 62.5 71.15L62.15 71.75Q61.5 72.1 60.9 72.65L59.65 73.7L58.3 74.55L56.95 75.8L56.55 75.3L56 75.05L55.6 74.6L54.8 74.05Q54.4 73.75 53.95 73.6L51.5 71.4L51.25 71.35L51.2 71.05L50.85 70.85L50.55 70.7L49.45 70.05Q49 69.6 48.4 69.35L48.05 69.25L47.7 69.25L47.4 68.95L46.8 68.95L46.15 68.5L46.1 68.25Q46.05 68.05 46.15 67.9Q46.5 68.15 46.8 68.2L47.4 68.3L48.05 68.7Q48.9 68.95 49.65 69.4L51.3 70.15L52.55 71.05Q53.15 71.55 53.85 71.85L54.95 72.45L56.25 72.75L56.9 73.05L57.7 73.15Q58.2 72.8 58.85 72.55L59.95 71.95Q60.6 71.65 60.95 71.1Q62 70.45 63.15 69.95M55.6 80.4L56.1 80.45L57.2 81.3Q57.8 81.7 58 82.3Q57.2 81.6 56.15 81.65Q55.15 81.65 54.2 82.1L54.1 82.4L53.8 82.4L53.7 82.2L53.8 82L54.4 81L55.2 80.1L55.6 80.4M53.15 84.15L53.35 84.55L52.85 85.25L52.1 85.8L51.6 86.6L51.05 86.55L50.85 86.35L50.8 86.35L51.4 85.6L52.1 84.7Q52.55 84.35 53.05 84.15L53.15 84.15M59.4 85.5L60.05 86.3L60.05 86.45L60.1 86.75L59.1 85.9Q58.65 85.4 58.65 84.8L59.4 85.5M48.25 90.75L47.3 91.9L46.75 92.75L45.95 93.45L45.3 94.25L44.65 95.2L44.55 95.15Q44.65 94.2 45.2 93.45L46.1 91.9Q46.7 90.9 47.45 90.05L48.85 88.15Q49.15 88.9 48.95 89.55L48.25 90.75M42.5 98.1L41.8 99.15Q41.5 99.65 41.35 100.3L39.35 102.25L38.85 102.25L39.35 101.65L39.85 101.05L41.05 99.15L42.5 97.3L42.95 97.1L42.5 98.1M69.4 91.15L70.15 91.6L70.8 92.1L70.85 92.1L70.9 92.15L71.75 93L72.65 93.9L72.55 93.95L72.65 94.1L72.7 94.25L73.25 93.8L73.35 93.15L73.35 92.45L73.45 91.8L73.4 91.2L73.3 91.4L73.1 91.05L72.9 91.05Q72.75 90.95 72.65 91.15L72.55 91.1L72.55 91L71.8 90.75L71.2 90.35L68.8 89.55L66.55 88.55L67.75 89.55Q68.3 90.1 69 90.45Q69.05 90.9 69.4 91.15M61.05 87.35L62.3 88.65L63.5 89.8Q64.1 90.4 64.5 91.25L65.75 94.35Q66.25 95.95 66.35 97.7L66.55 98.3L66.55 98.95L65.35 96.45L64.2 93.95L63.5 92.75L63 91.45L62.25 90.25L61.75 89.3L61.35 88.25Q61.2 88.1 61.2 87.8L61.05 87.35M74.45 111.15L74.9 113.75L75.25 116.3L74.95 121.9L74.15 127.3L73.25 130.6L72.4 133.95L71.3 137.1L74.45 133.05L74.45 132.55L75.45 130.1L76.1 127.55Q76.65 126.85 76.85 126L77.05 124.25Q77.15 123.35 77.55 122.55L77.7 123.05Q78.6 120.4 78.95 117.45Q79.25 114.5 79.15 111.45L79.45 110.8L79.1 110.25L78.55 109.8L77 109.65L75.5 109.75L74.7 110.3Q74.4 110.6 74.45 111.15M62.5 101.25L61.35 101.8L58.6 101.5Q57.3 101.2 56.1 100.4L55.9 100L55.6 99.7L55.85 98.95Q56.1 98.95 56.25 99.1L56.5 99.5L57.3 99.95L58 100.35L60.25 100.9L62.6 101.1L62.5 101.25M62.1 108.2L61.8 108.05L60.9 107.95Q60.4 107.95 60.05 108.25Q59.85 109 59.9 109.7L60.2 111.15L60.4 112.5L62.3 109.5L62.6 109L62.75 108.5L62.45 108.1L62.1 108.2M64.1 110.35Q64.15 111.4 64.5 112.35L66.55 108.6Q66.05 108.15 65.3 108.15L63.95 108.35L64.1 110.35M67.6 106.8Q67.45 106.95 67.45 107.15Q67.45 107.4 67.15 107.25L67 107.35L66.8 107.35L66.35 106.2L66.1 104.9L67.1 105.7L67.6 106.8M69.35 115.3Q69.05 116.9 68.3 118.25L67.7 119.15L67.05 119.95L66.65 120.95Q66.95 120.95 67 121.2L67.2 121.7Q68 122.4 69.1 122.4L69.75 122L70.05 121.3Q70.85 119.9 71.05 118.25Q71.25 116.6 70.9 115Q70.55 113.35 69.65 112.05L69.35 115.3M63.3 117L62.85 118.55Q62.55 119.3 62.4 120.1L62.1 120.75L61.8 121.55L61.95 122.15L62.15 122.1L62.25 122.25L62.45 122.3L62.55 121.7L62.85 121.3L62.95 121.8L62.8 122.25L62.95 122.7L63.85 122.4L64.6 121.8L64.75 121.9L64.1 122.7L63.2 123.25L62.3 123.2L61.55 122.65L61.05 122.6L60.75 122.35L59.4 117.9L59.05 118.75L58.65 119.6L58.2 120.85L57.85 122.05Q57.7 122.7 58.2 123.3L58.8 123.35L59.3 123.25L60.15 123.1L60.9 122.9L59.75 123.8Q59.15 124.25 58.35 124.05L57.8 123.7Q57.55 123.5 57.45 123.1L55.4 124.1L54.7 124L54.2 123.55L53.85 123.35L53.6 123.25L52.65 121L51.7 118.75L50.4 122.55L50.55 122.7L50.8 122.8L50.75 122.55L50.9 122.3L51.1 122.75L51.1 123.3L51.9 123.6L52.95 123.75Q53.5 123.7 53.85 123.35L53.95 123.55L52.9 124.35L51.6 124.5Q51 124.35 50.65 123.85L49.9 122.8L49.85 123L49 123.5L48.15 124.2L47.25 124.5L46.45 124.4L45.75 124.05L45.8 124.2L44.85 125.3L43.55 125.8L42.05 125.95Q42.35 127.05 43.1 127.9L44.8 129.45L47.45 131.05L50.15 132.45L50.65 131.9L51 131.3L51.5 130.9L51.5 131.4L50.6 135.55L49.75 139.75L50.05 141.9Q50.2 143 50.7 144Q51 145.1 51.8 145.95Q52.7 146.9 53.75 147.25Q55.3 147.9 56.95 147.85L60.05 147.2Q61.6 146.6 62.9 145.65Q63.7 145.4 64.1 144.8L64.7 143.45Q64.95 142.7 65.5 142.2Q65.8 139.1 65.15 136.25Q64.45 133.4 63.35 130.75L63.5 130.4L63.25 130.05L63.25 129.85L63.5 129.8L64.65 131.25L66.1 130.5L67.5 129.45Q67.7 128.8 68.2 128.3L69.05 127.2Q70.05 125.9 70.55 124.4Q71.05 122.9 71.15 121.35Q70.6 122.3 69.7 122.7L67.8 123.15L66.55 122.5Q66 122.05 65.9 121.3L65.25 121.05L65.25 121.5L65.25 121.95L65.15 122.1L65 122.05Q64.45 119.5 63.4 117.05L63.3 117M63.15 123.6L63.35 123.8L63.7 123.7L64 123.6L64.55 123.6Q64.85 123.5 64.95 123.85L64.9 124.5L64.1 126Q63.75 126.8 63 127.35L63 126.2L63.05 125Q63 124.4 62.45 123.95L62.45 123.7L62.8 123.6L63.15 123.6M77.95 111.85L78.15 111Q78.5 111.5 78.5 112.25L78.25 113.5L78.15 112.65L77.95 111.85M53.35 100.55L53 101.1L52.35 101.35L51.7 101.55L49.5 101.9L47.3 102.2L46.65 102Q46.4 101.95 46.25 101.7L48.55 101.2L50.85 100.8L51.6 100.85L52.4 100.6L52.8 100.25Q53 100.1 53.25 100.1L53.35 100.55M53.2 108L53.2 108.15L53.05 108.25L52.9 108.3L53.05 108.45L52.9 108.75L52.55 108.95L52.85 110.85L53.05 112.85Q53.35 111.95 53.8 111.2L54.7 109.6L55.15 107.85L54 107.5L53.65 107.55L53.45 107.85L53.2 108M50.8 107.8L50.35 107.8Q50.1 107.9 50 107.65L49.3 108.2L49.25 108.65L49.15 109.05L50.35 113.45Q51.2 111.55 51.55 109.45Q51.6 109.05 51.8 108.75Q52 108.4 51.8 107.95L51.6 108.4L51.2 108L50.8 107.8M57.6 107.95L56.95 107.95L56.45 108.25Q56.05 109.05 56.1 109.9L56.35 111.6L56.75 113.2L57.8 110.9L58.7 108.5L58.2 108L57.6 107.95M43.05 119.95Q42.1 117.95 41.9 115.65Q41.35 117.3 41.3 119.25Q41.15 121.15 41.85 122.75L42.1 123.75L42.55 124.7L43.7 124.65L44.9 124.45Q45.4 124.3 45.55 123.6Q44.05 121.9 43.05 119.95M47.25 120L46.95 121.6L46.2 122.95L46 123Q45.8 122.95 45.8 123.1L46.1 123.4L46.55 123.35L47.9 123.3L49.3 122.9L49.05 121.25L48.75 119.65Q48.55 118.8 47.95 118.2L47.85 118.6L47.25 120M54.75 120.55L54.55 122.8L54.9 122.8L54.9 122.4Q54.85 122.2 55.05 122.05L55.25 122.6L55.3 123.1L56.15 122.85L56.95 122.9L57.3 122.65L57.3 122.35L57.2 122.55Q56.9 122.6 56.65 122.35L55.95 120.4L55.35 118.35L54.75 120.55M57.25 125.7L56.75 124.95Q56.8 124.75 57 124.8L57.35 124.75L57.6 124.5L57.95 124.55L57.9 128Q57.45 128.05 57.45 127.75L57.5 127.15L57.3 126.65L57.25 125.7M54.8 124.85L55.35 124.95L55.85 125.3L55.35 126.05L55.05 126.9L55.05 127.1L55.1 127.35L54.8 127.15L54.65 126.7L54.4 125.5Q54.25 124.95 54.4 124.4L54.8 124.85M53.6 125.3L53.45 126.1L53 126.65L52.3 126.55L51.6 126.25L51.35 125.8Q51.2 125.6 51.4 125.4L51.3 125.15L51.25 125L51.9 125.2L52.55 125.15L53.05 124.75L53.35 125L53.6 125.3M51.25 127.45L50.85 127.35L50.5 127.05L50.2 126.6L50.25 126.1Q49.8 125.6 49.15 125.5L47.85 125.2L47.75 124.9L47.9 124.7L48.7 124.45L49.45 124.15L49.85 124.1L50.15 124.2L50.3 124.1L50.7 125.6L51.25 127L51.25 127.45M46.25 125.2L46.5 125.1L46.85 125.05L47.6 126.1L48.45 127L48.5 127.35L48.6 127.65Q48.65 127.8 48.4 127.75L47.7 127.05L46.9 126.55L46.05 126.5L45.35 126.7Q45.05 126.55 44.8 126.7L44.3 126.9Q44.05 126.95 43.95 126.55L44.5 125.95L45.3 125.6L46.05 125.05L46.25 125.2M43.5 132.9Q44.1 134.1 45.05 134.8L47.05 136.35L48.7 138.15L48.75 137.8L48.65 137.45L48.75 137.1L48.8 136.6Q48.85 136.45 49.15 136.4L49 135.25L48.5 134.15L48.1 133.1L46.6 131.9L44.9 131.1L43.85 130.85L43 130.15L42.2 129.35L42.75 131.1L43.5 132.9M71 127.45L71 127.3L70.65 127.65L70.7 127.15L70.95 126.7L69.15 128.95L67.5 131.25Q67.5 131.9 67.15 132.4L66.55 133.45Q66.3 133.9 66.45 134.2L66.7 134.9L66.7 135.65L68.75 133.2L70.6 130.7Q71.3 129.35 71.2 127.6Q70.95 127.65 71 127.45M38.05 104.55L37.3 105.3L36.7 106.05L36.8 105.6L37.05 105.15L38.1 103.5L38.45 103.55L38.7 103.3L38.7 103.7L38.05 104.55M35.95 111.55L35.25 112.15Q34.8 114.45 34.75 116.85L34.8 121.55L34.5 121.6L34.85 124L35.5 126.25L36.2 128.55Q36.8 130.4 38 132.15Q39.1 133.8 40.8 135.2L40.2 134.05L39.75 132.75Q39.3 132.15 39.15 131.45L38.95 129.95L38.6 128.55Q38.25 126.25 38.2 123.75Q38.15 121.25 38.4 118.85Q38.65 116.4 39.25 114.15L38.75 113.05Q38.5 112.45 37.9 112.3L36.95 111.9L35.95 111.55M81.6 59.95L78.75 59.65L75.95 58.8L73.75 57.5L71.85 55.8L70 55.75Q69.15 55.9 68.4 56.55L66.95 57.8L65.45 59L64.95 59.9L64.65 60.9L64.45 62.25L64.1 63.6Q63.95 64.25 64.05 65L64.25 65.15L64.45 65.15L65.35 65.25L66.2 64.85L67.05 64.35Q67.05 64.1 67.2 64.1L67.45 64.05Q68.25 63.7 69.05 63.5L70.7 63.2L72.35 62.8L72.75 62.95L73.3 62.9L73.75 62.65L76.2 62.3L78.75 62.25Q79.15 61.8 79.65 61.7L80.7 61.65L80.6 61.1Q80.8 60.55 81.35 60.3L81.4 60.65Q81.75 60.4 81.6 59.95M57.85 58.1L57.8 58.15Q58.3 59.3 58.25 60.5L58.05 63L57.95 65.45Q57.5 66.1 57.45 66.85L57 68.35L56.95 68.3L57 66.7Q56.85 65.9 57.05 65.05Q56.85 64.3 56.8 63.4L56.65 61.7L57.05 59.3L57.1 56.9Q57.4 57.05 57.5 57.45L57.85 58.1M46.05 99.35L45.9 98.7L46.2 98Q46.35 96.4 47.1 95.15Q47.75 93.8 48.65 92.55L50.1 89.95L50.7 89.3Q50.65 88.95 50.75 88.85L51.15 88.55L51.45 88.2Q51.7 87.4 52.25 86.85L53.35 85.65L54.55 84.9L56 84.85Q57.05 85.15 57.65 85.9L58.7 87.6Q59.15 88.6 59.75 89.4Q61.1 91.35 62.1 93.45L63.75 97.8L63.85 98.5L63.6 99.1L61.2 99Q60.05 98.9 59.1 98.3L57.7 97.5L56.65 96.25L55.7 94.95L55.25 93.85L54.7 92.85L54.45 92.85Q54.05 93.25 53.75 93.8L53.2 94.85L52.4 95.7L50.75 97.7L48.65 99.15L46.05 99.35M60.8 124.15L60.95 124.2L61.15 124.2L61.25 124.4L60.75 126.15Q60.45 126.95 60.3 127.85L60 128.15Q59.6 128 59.75 127.6L59.9 126.3Q60 125.55 59.75 124.9L59.8 124.4L60.3 124.45L60.8 124.15" />
</g>
<g id="PathID_2" transform="matrix(1.54243, 0, 0, 2.31929, 73.2, 4.6)" opacity="1">
</g>
<g id="PathID_3" transform="matrix(0.0116837, -1.4062, 1.4062, 0.0116837, 67.15, 355.8)" opacity="1">
<path style="fill:#FF0000;fill-opacity:1" d="M-0.05 0L14 -36.65L19.3 -36.65L34.25 0L28.75 0L24.5 -11.1L9.1 -11.1L5.1 0L-0.05 0M10.45 -15.05L22.95 -15.05L19.15 -25.2Q17.35 -29.8 16.5 -32.85Q15.8 -29.25 14.5 -25.75L10.45 -15.05" />
</g>
<g id="PathID_4" transform="matrix(0.0116837, -1.4062, 1.4062, 0.0116837, 67.15, 355.8)" opacity="1">
<path style="fill:none;stroke-width:1.65;stroke-linecap:round;stroke-linejoin:round;stroke-miterlimit:3;stroke:#000000;stroke-opacity:1" d="M0 0L14 -36.65L19.3 -36.65L34.25 0L28.75 0L24.5 -11.1L9.1 -11.1L5.1 0L0 0z" />
<path style="fill:none;stroke-width:1.65;stroke-linecap:round;stroke-linejoin:round;stroke-miterlimit:3;stroke:#000000;stroke-opacity:1" d="M10.45 -15.05L22.9 -15.05L19.15 -25.2Q17.3 -29.8 16.5 -32.85Q15.8 -29.25 14.45 -25.75L10.45 -15.05z" />
</g>
<g id="PathID_5" transform="matrix(0.0116837, -1.4062, 1.4062, 0.0116837, 67.55, 307.8)" opacity="1">
<path style="fill:#FF0000;fill-opacity:1" d="M3.4 10.2L3.4 -26.55L7.5 -26.55L7.5 -23.05Q8.95 -25.1 10.75 -26.1Q12.6 -27.15 15.2 -27.15Q18.6 -27.15 21.2 -25.4Q23.8 -23.65 25.1 -20.45Q26.45 -17.25 26.45 -13.45Q26.45 -9.4 24.95 -6.1Q23.5 -2.85 20.7 -1.1Q17.95 0.6 14.85 0.6Q12.6 0.6 10.8 -0.35Q9.05 -1.3 7.9 -2.75L7.9 10.2L3.4 10.2M7.45 -13.1Q7.45 -7.95 9.5 -5.5Q11.55 -3.1 14.5 -3.1Q17.5 -3.1 19.65 -5.6Q21.8 -8.15 21.8 -13.45Q21.8 -18.55 19.7 -21.05Q17.6 -23.6 14.7 -23.6Q11.85 -23.6 9.65 -20.9Q7.45 -18.2 7.45 -13.1" />
</g>
<g id="PathID_6" transform="matrix(0.0116837, -1.4062, 1.4062, 0.0116837, 67.55, 307.8)" opacity="1">
<path style="fill:none;stroke-width:1.65;stroke-linecap:round;stroke-linejoin:round;stroke-miterlimit:3;stroke:#000000;stroke-opacity:1" d="M3.4 10.15L3.35 -26.55L7.5 -26.5L7.5 -23.05Q8.9 -25.1 10.7 -26.1Q12.55 -27.15 15.15 -27.15Q18.55 -27.15 21.2 -25.4Q23.75 -23.65 25.05 -20.45Q26.4 -17.2 26.45 -13.45Q26.45 -9.4 24.95 -6.1Q23.45 -2.85 20.65 -1.1Q17.9 0.55 14.8 0.55Q12.6 0.55 10.75 -0.35Q9 -1.3 7.85 -2.75L7.85 10.15L3.4 10.15z" />
<path style="fill:none;stroke-width:1.65;stroke-linecap:round;stroke-linejoin:round;stroke-miterlimit:3;stroke:#000000;stroke-opacity:1" d="M7.4 -13.1Q7.4 -7.95 9.45 -5.5Q11.5 -3.1 14.45 -3.1Q17.45 -3.1 19.6 -5.6Q21.8 -8.15 21.8 -13.45Q21.75 -18.55 19.65 -21.05Q17.55 -23.6 14.65 -23.6Q11.8 -23.55 9.65 -20.9Q7.4 -18.2 7.4 -13.1z" />
</g>
<g id="PathID_7" transform="matrix(0.0116837, -1.4062, 1.4062, 0.0116837, 67.85, 267.75)" opacity="1">
<path style="fill:#FF0000;fill-opacity:1" d="M3.4 10.2L3.4 -26.55L7.5 -26.55L7.5 -23.05Q8.95 -25.1 10.75 -26.1Q12.6 -27.15 15.2 -27.15Q18.6 -27.15 21.2 -25.4Q23.8 -23.65 25.1 -20.45Q26.45 -17.25 26.45 -13.45Q26.45 -9.4 24.95 -6.1Q23.5 -2.85 20.7 -1.1Q17.95 0.6 14.85 0.6Q12.6 0.6 10.8 -0.35Q9.05 -1.3 7.9 -2.75L7.9 10.2L3.4 10.2M7.45 -13.1Q7.45 -7.95 9.5 -5.5Q11.55 -3.1 14.5 -3.1Q17.5 -3.1 19.65 -5.6Q21.8 -8.15 21.8 -13.45Q21.8 -18.55 19.7 -21.05Q17.6 -23.6 14.7 -23.6Q11.85 -23.6 9.65 -20.9Q7.45 -18.2 7.45 -13.1" />
</g>
<g id="PathID_8" transform="matrix(0.0116837, -1.4062, 1.4062, 0.0116837, 67.85, 267.75)" opacity="1">
<path style="fill:none;stroke-width:1.65;stroke-linecap:round;stroke-linejoin:round;stroke-miterlimit:3;stroke:#000000;stroke-opacity:1" d="M3.35 10.2L3.35 -26.5L7.45 -26.5L7.45 -23Q8.9 -25.05 10.7 -26.05Q12.55 -27.1 15.15 -27.15Q18.55 -27.1 21.15 -25.35Q23.75 -23.6 25.05 -20.4Q26.4 -17.2 26.4 -13.45Q26.4 -9.4 24.9 -6.05Q23.45 -2.8 20.65 -1.1Q17.9 0.6 14.8 0.6Q12.55 0.55 10.75 -0.3Q9 -1.25 7.85 -2.7L7.85 10.2L3.35 10.2z" />
<path style="fill:none;stroke-width:1.65;stroke-linecap:round;stroke-linejoin:round;stroke-miterlimit:3;stroke:#000000;stroke-opacity:1" d="M7.4 -13.05Q7.4 -7.9 9.45 -5.45Q11.5 -3.05 14.45 -3.05Q17.45 -3.1 19.6 -5.55Q21.75 -8.15 21.75 -13.45Q21.75 -18.5 19.65 -21Q17.55 -23.55 14.65 -23.55Q11.8 -23.55 9.6 -20.85Q7.4 -18.2 7.4 -13.05z" />
</g>
<g id="PathID_9" transform="matrix(0.0116837, -1.4062, 1.4062, 0.0116837, 68.2, 227.7)" opacity="1">
<path style="fill:#FF0000;fill-opacity:1" d="M3.3 0L3.3 -36.65L7.8 -36.65L7.8 0L3.3 0" />
</g>
<g id="PathID_10" transform="matrix(0.0116837, -1.4062, 1.4062, 0.0116837, 68.2, 227.7)" opacity="1">
<path style="fill:none;stroke-width:1.65;stroke-linecap:round;stroke-linejoin:round;stroke-miterlimit:3;stroke:#000000;stroke-opacity:1" d="M3.25 0L3.3 -36.6L7.75 -36.6L7.8 0L3.25 0z" />
</g>
<g id="PathID_11" transform="matrix(0.0116837, -1.4062, 1.4062, 0.0116837, 68.35, 211.7)" opacity="1">
<path style="fill:#FF0000;fill-opacity:1" d="M3.4 -31.5L3.4 -36.65L7.9 -36.65L7.9 -31.5L3.4 -31.5M3.4 0L3.4 -26.55L7.9 -26.55L7.9 0L3.4 0" />
</g>
<g id="PathID_12" transform="matrix(0.0116837, -1.4062, 1.4062, 0.0116837, 68.35, 211.7)" opacity="1">
<path style="fill:none;stroke-width:1.65;stroke-linecap:round;stroke-linejoin:round;stroke-miterlimit:3;stroke:#000000;stroke-opacity:1" d="M3.35 -31.5L3.35 -36.6L7.85 -36.65L7.85 -31.5L3.35 -31.5z" />
<path style="fill:none;stroke-width:1.65;stroke-linecap:round;stroke-linejoin:round;stroke-miterlimit:3;stroke:#000000;stroke-opacity:1" d="M3.35 0L3.35 -26.55L7.85 -26.55L7.85 0L3.35 0z" />
</g>
<g id="PathID_13" transform="matrix(0.0116837, -1.4062, 1.4062, 0.0116837, 68.45, 195.7)" opacity="1">
<path style="fill:#FF0000;fill-opacity:1" d="M20.65 -9.75L25.1 -9.15Q24.35 -4.55 21.35 -1.95Q18.4 0.6 14.05 0.6Q8.65 0.6 5.35 -2.95Q2.05 -6.5 2.05 -13.15Q2.05 -17.45 3.45 -20.65Q4.85 -23.9 7.75 -25.5Q10.65 -27.15 14.05 -27.15Q18.4 -27.15 21.1 -24.95Q23.85 -22.8 24.65 -18.8L20.25 -18.1Q19.6 -20.75 18 -22.1Q16.45 -23.45 14.25 -23.45Q10.9 -23.45 8.8 -21Q6.7 -18.55 6.7 -13.3Q6.7 -7.95 8.7 -5.5Q10.75 -3.1 14 -3.1Q16.65 -3.1 18.4 -4.7Q20.15 -6.35 20.65 -9.75" />
</g>
<g id="PathID_14" transform="matrix(0.0116837, -1.4062, 1.4062, 0.0116837, 68.45, 195.7)" opacity="1">
<path style="fill:none;stroke-width:1.65;stroke-linecap:round;stroke-linejoin:round;stroke-miterlimit:3;stroke:#000000;stroke-opacity:1" d="M20.65 -9.7L25.1 -9.1Q24.3 -4.5 21.3 -1.9Q18.4 0.6 14.05 0.6Q8.65 0.55 5.35 -2.9Q2.05 -6.45 2.05 -13.1Q2.05 -17.4 3.4 -20.6Q4.8 -23.9 7.7 -25.45Q10.6 -27.15 14.05 -27.1Q18.4 -27.1 21.1 -24.9Q23.85 -22.75 24.65 -18.75L20.25 -18.05Q19.6 -20.7 18 -22.05Q16.45 -23.4 14.25 -23.4Q10.9 -23.4 8.8 -20.95Q6.7 -18.55 6.7 -13.25Q6.7 -7.95 8.65 -5.45Q10.75 -3.05 14 -3.05Q16.6 -3.05 18.4 -4.65Q20.15 -6.3 20.65 -9.7z" />
</g>
<g id="PathID_15" transform="matrix(0.0116837, -1.4062, 1.4062, 0.0116837, 68.75, 159.7)" opacity="1">
<path style="fill:#FF0000;fill-opacity:1" d="M20.7 -3.35Q18.2 -1.15 15.85 -0.25Q13.55 0.6 10.9 0.6Q6.55 0.6 4.2 -1.5Q1.85 -3.65 1.85 -7Q1.85 -8.95 2.7 -10.55Q3.6 -12.15 5.05 -13.1Q6.5 -14.1 8.3 -14.6Q9.6 -14.95 12.3 -15.3Q17.75 -15.95 20.3 -16.85L20.35 -18Q20.35 -20.75 19.05 -21.85Q17.35 -23.4 13.95 -23.4Q10.75 -23.4 9.25 -22.25Q7.75 -21.15 7.05 -18.35L2.65 -18.95Q3.25 -21.75 4.6 -23.5Q6 -25.25 8.6 -26.2Q11.2 -27.15 14.6 -27.15Q18 -27.15 20.1 -26.3Q22.25 -25.5 23.25 -24.3Q24.25 -23.1 24.65 -21.25Q24.9 -20.1 24.9 -17.1L24.9 -11.1Q24.9 -4.85 25.15 -3.15Q25.45 -1.5 26.3 0L21.6 0Q20.9 -1.4 20.7 -3.35M20.3 -13.3Q17.85 -12.3 12.95 -11.6Q10.15 -11.2 9 -10.7Q7.85 -10.2 7.25 -9.2Q6.65 -8.25 6.65 -7.1Q6.65 -5.3 8 -4.1Q9.35 -2.95 12 -2.95Q14.6 -2.95 16.6 -4.05Q18.65 -5.2 19.6 -7.15Q20.3 -8.65 20.3 -11.65L20.3 -13.3" />
</g>
<g id="PathID_16" transform="matrix(0.0116837, -1.4062, 1.4062, 0.0116837, 68.75, 159.7)" opacity="1">
<path style="fill:none;stroke-width:1.65;stroke-linecap:round;stroke-linejoin:round;stroke-miterlimit:3;stroke:#000000;stroke-opacity:1" d="M20.65 -3.3Q18.2 -1.15 15.85 -0.2Q13.5 0.6 10.9 0.6Q6.55 0.6 4.2 -1.45Q1.8 -3.6 1.85 -6.95Q1.85 -8.9 2.7 -10.55Q3.6 -12.1 5.05 -13.05Q6.5 -14.1 8.3 -14.55Q9.6 -14.9 12.3 -15.25Q17.7 -15.9 20.3 -16.8L20.35 -17.95Q20.35 -20.7 19.05 -21.85Q17.35 -23.4 13.95 -23.35Q10.75 -23.35 9.25 -22.2Q7.7 -21.15 7.05 -18.3L2.6 -18.9Q3.25 -21.7 4.6 -23.45Q6 -25.2 8.55 -26.15Q11.2 -27.1 14.55 -27.1Q18 -27.1 20.1 -26.25Q22.25 -25.45 23.25 -24.25Q24.25 -23.05 24.65 -21.2Q24.85 -20.05 24.9 -17.1L24.85 -11.05Q24.9 -4.8 25.15 -3.1Q25.45 -1.45 26.3 0L21.6 0Q20.9 -1.35 20.65 -3.3z" />
<path style="fill:none;stroke-width:1.65;stroke-linecap:round;stroke-linejoin:round;stroke-miterlimit:3;stroke:#000000;stroke-opacity:1" d="M20.3 -13.25Q17.8 -12.25 12.9 -11.55Q10.15 -11.15 9 -10.65Q7.85 -10.2 7.25 -9.2Q6.6 -8.2 6.65 -7.1Q6.65 -5.25 7.95 -4.05Q9.35 -2.9 12 -2.9Q14.6 -2.9 16.6 -4.05Q18.65 -5.15 19.55 -7.1Q20.25 -8.6 20.3 -11.6L20.3 -13.25z" />
</g>
<g id="PathID_17" transform="matrix(0.0116837, -1.4062, 1.4062, 0.0116837, 69.1, 119.65)" opacity="1">
<path style="fill:#FF0000;fill-opacity:1" d="M13.2 -4L13.8 -0.05Q11.9 0.35 10.4 0.35Q7.95 0.35 6.6 -0.4Q5.25 -1.2 4.7 -2.45Q4.15 -3.7 4.15 -7.75L4.15 -23.05L0.8 -23.05L0.8 -26.55L4.15 -26.55L4.15 -33.1L8.65 -35.8L8.65 -26.55L13.2 -26.55L13.2 -23.05L8.65 -23.05L8.65 -7.5Q8.65 -5.6 8.85 -5.05Q9.1 -4.5 9.65 -4.15Q10.2 -3.85 11.2 -3.85Q11.95 -3.85 13.2 -4" />
</g>
<g id="PathID_18" transform="matrix(0.0116837, -1.4062, 1.4062, 0.0116837, 69.1, 119.65)" opacity="1">
<path style="fill:none;stroke-width:1.65;stroke-linecap:round;stroke-linejoin:round;stroke-miterlimit:3;stroke:#000000;stroke-opacity:1" d="M13.2 -3.95L13.8 0Q11.85 0.35 10.35 0.35Q7.9 0.35 6.55 -0.35Q5.2 -1.15 4.65 -2.4Q4.1 -3.65 4.1 -7.7L4.15 -23L0.75 -23L0.75 -26.5L4.1 -26.5L4.1 -33.05L8.6 -35.75L8.6 -26.5L13.15 -26.5L13.15 -23L8.6 -23L8.65 -7.45Q8.6 -5.55 8.85 -5Q9.05 -4.45 9.6 -4.1Q10.15 -3.8 11.15 -3.8Q11.9 -3.8 13.2 -3.95z" />
</g>
<g id="PathID_19" transform="matrix(0.0116837, -1.4062, 1.4062, 0.0116837, 69.25, 99.65)" opacity="1">
<path style="fill:#FF0000;fill-opacity:1" d="M3.4 -31.5L3.4 -36.65L7.9 -36.65L7.9 -31.5L3.4 -31.5M3.4 0L3.4 -26.55L7.9 -26.55L7.9 0L3.4 0" />
</g>
<g id="PathID_20" transform="matrix(0.0116837, -1.4062, 1.4062, 0.0116837, 69.25, 99.65)" opacity="1">
<path style="fill:none;stroke-width:1.65;stroke-linecap:round;stroke-linejoin:round;stroke-miterlimit:3;stroke:#000000;stroke-opacity:1" d="M3.35 -31.5L3.4 -36.6L7.9 -36.6L7.9 -31.5L3.35 -31.5z" />
<path style="fill:none;stroke-width:1.65;stroke-linecap:round;stroke-linejoin:round;stroke-miterlimit:3;stroke:#000000;stroke-opacity:1" d="M3.4 0L3.4 -26.5L7.9 -26.5L7.9 0L3.4 0z" />
</g>
<g id="PathID_21" transform="matrix(0.0116837, -1.4062, 1.4062, 0.0116837, 69.4, 83.65)" opacity="1">
<path style="fill:#FF0000;fill-opacity:1" d="M1.7 -13.25Q1.7 -20.65 5.8 -24.2Q9.2 -27.15 14.15 -27.15Q19.6 -27.15 23.1 -23.55Q26.6 -19.95 26.6 -13.65Q26.6 -8.5 25.05 -5.55Q23.5 -2.65 20.55 -1Q17.6 0.6 14.15 0.6Q8.55 0.6 5.1 -2.95Q1.7 -6.55 1.7 -13.25M6.35 -13.25Q6.35 -8.15 8.55 -5.6Q10.75 -3.1 14.15 -3.1Q17.5 -3.1 19.7 -5.6Q21.95 -8.15 21.95 -13.4Q21.95 -18.3 19.7 -20.85Q17.45 -23.4 14.15 -23.4Q10.75 -23.4 8.55 -20.85Q6.35 -18.35 6.35 -13.25" />
</g>
<g id="PathID_22" transform="matrix(0.0116837, -1.4062, 1.4062, 0.0116837, 69.4, 83.65)" opacity="1">
<path style="fill:none;stroke-width:1.65;stroke-linecap:round;stroke-linejoin:round;stroke-miterlimit:3;stroke:#000000;stroke-opacity:1" d="M1.65 -13.2Q1.65 -20.6 5.75 -24.15Q9.2 -27.1 14.15 -27.1Q19.55 -27.1 23.1 -23.5Q26.55 -19.9 26.6 -13.6Q26.6 -8.45 25 -5.5Q23.45 -2.6 20.55 -0.95Q17.55 0.6 14.1 0.6Q8.55 0.6 5.1 -2.9Q1.7 -6.5 1.65 -13.2z" />
<path style="fill:none;stroke-width:1.65;stroke-linecap:round;stroke-linejoin:round;stroke-miterlimit:3;stroke:#000000;stroke-opacity:1" d="M6.3 -13.2Q6.3 -8.1 8.5 -5.55Q10.75 -3.05 14.1 -3.05Q17.45 -3.05 19.7 -5.55Q21.95 -8.1 21.9 -13.35Q21.9 -18.25 19.65 -20.8Q17.45 -23.35 14.1 -23.35Q10.7 -23.35 8.55 -20.8Q6.3 -18.3 6.3 -13.2z" />
</g>
<g id="PathID_23" transform="matrix(0.0116837, -1.4062, 1.4062, 0.0116837, 69.75, 43.6)" opacity="1">
<path style="fill:#FF0000;fill-opacity:1" d="M3.4 0L3.4 -26.55L7.45 -26.55L7.45 -22.75Q10.35 -27.15 15.85 -27.15Q18.25 -27.15 20.25 -26.25Q22.3 -25.4 23.3 -24Q24.3 -22.6 24.7 -20.7Q24.95 -19.45 24.95 -16.3L24.95 0L20.45 0L20.45 -16.15Q20.45 -18.9 19.9 -20.25Q19.4 -21.6 18.05 -22.4Q16.7 -23.25 14.9 -23.25Q12.05 -23.25 9.95 -21.4Q7.9 -19.6 7.9 -14.5L7.9 0L3.4 0" />
</g>
<g id="PathID_24" transform="matrix(0.0116837, -1.4062, 1.4062, 0.0116837, 69.75, 43.6)" opacity="1">
<path style="fill:none;stroke-width:1.65;stroke-linecap:round;stroke-linejoin:round;stroke-miterlimit:3;stroke:#000000;stroke-opacity:1" d="M3.35 0L3.35 -26.5L7.4 -26.5L7.4 -22.75Q10.3 -27.15 15.8 -27.1Q18.2 -27.15 20.2 -26.25Q22.25 -25.4 23.25 -24Q24.25 -22.55 24.65 -20.7Q24.9 -19.45 24.9 -16.3L24.9 0L20.4 0L20.4 -16.15Q20.4 -18.9 19.85 -20.2Q19.35 -21.55 18 -22.4Q16.65 -23.2 14.85 -23.25Q12 -23.25 9.9 -21.4Q7.85 -19.6 7.85 -14.45L7.85 0L3.35 0z" />
</g>
</svg>
