<?xml version="1.0" encoding="utf-8"?>
<svg version="1.1" id="Layer_1"
xmlns="http://www.w3.org/2000/svg"
xmlns:xlink="http://www.w3.org/1999/xlink"
width="429px" height="314px"
xml:space="preserve">
<g id="PathID_1" transform="matrix(1, 0, 0, 1, 157.05, -407.1)" opacity="1">
</g>
<g id="PathID_2" transform="matrix(1, 0, 0, 1, 157.05, -407.1)" opacity="1">
</g>
<g id="PathID_3" transform="matrix(0.882025, 0, 0, 0.882025, 32.9, 271)" opacity="1">
<path style="fill:#384348;fill-opacity:1" d="M27.85 0Q27.3 -1.85 26.6 -3.8L25.25 -7.65L11.4 -7.65L10.05 -3.8Q9.35 -1.85 8.8 0L0.5 0L4.3 -10.6Q6.1 -15.45 7.8 -19.75Q9.5 -24.05 11.15 -27.9Q12.85 -31.8 14.65 -35.45L22.25 -35.45Q24 -31.8 25.7 -27.9Q27.4 -24.05 29.1 -19.75Q30.8 -15.45 32.6 -10.6L36.4 0L27.85 0M18.25 -27.45L17.5 -25.35L16.3 -22.25L14.85 -18.4L13.25 -14L23.35 -14L21.75 -18.4L20.3 -22.25L19.1 -25.35L18.25 -27.45" />
</g>
<g id="PathID_4" transform="matrix(0.882025, 0, 0, 0.882025, 32.9, 271)" opacity="1">
</g>
<g id="PathID_5" transform="matrix(0.882025, 0, 0, 0.882025, 63.9, 271)" opacity="1">
<path style="fill:#384348;fill-opacity:1" d="M20.85 -13.25Q20.85 -16.8 19.25 -18.9Q17.65 -21.05 14.55 -21.05Q13.5 -21.05 12.65 -20.95Q11.75 -20.9 11.2 -20.75L11.2 -7Q11.9 -6.55 13.05 -6.25Q14.2 -5.95 15.4 -5.95Q20.85 -5.95 20.85 -13.25M28.6 -13.45Q28.6 -10.35 27.85 -7.75Q27.05 -5.2 25.6 -3.35Q24.1 -1.5 21.9 -0.5Q19.7 0.5 16.85 0.5Q15.25 0.5 13.85 0.2Q12.5 -0.1 11.2 -0.65L11.2 9.45L3.55 9.45L3.55 -26L5.95 -26.6L8.7 -27.05Q10.2 -27.3 11.7 -27.4Q13.2 -27.55 14.6 -27.55Q17.9 -27.55 20.5 -26.55Q23.15 -25.55 24.9 -23.7Q26.7 -21.9 27.65 -19.3Q28.6 -16.7 28.6 -13.45" />
</g>
<g id="PathID_6" transform="matrix(0.882025, 0, 0, 0.882025, 63.9, 271)" opacity="1">
</g>
<g id="PathID_7" transform="matrix(0.882025, 0, 0, 0.882025, 89.7, 271)" opacity="1">
<path style="fill:#384348;fill-opacity:1" d="M20.85 -13.25Q20.85 -16.8 19.25 -18.9Q17.65 -21.05 14.55 -21.05Q13.5 -21.05 12.65 -20.95Q11.75 -20.9 11.2 -20.75L11.2 -7Q11.9 -6.55 13.05 -6.25Q14.2 -5.95 15.4 -5.95Q20.85 -5.95 20.85 -13.25M28.6 -13.45Q28.6 -10.35 27.85 -7.75Q27.05 -5.2 25.6 -3.35Q24.1 -1.5 21.9 -0.5Q19.7 0.5 16.85 0.5Q15.25 0.5 13.85 0.2Q12.5 -0.1 11.2 -0.65L11.2 9.45L3.55 9.45L3.55 -26L5.95 -26.6L8.7 -27.05Q10.2 -27.3 11.7 -27.4Q13.2 -27.55 14.6 -27.55Q17.9 -27.55 20.5 -26.55Q23.15 -25.55 24.9 -23.7Q26.7 -21.9 27.65 -19.3Q28.6 -16.7 28.6 -13.45" />
</g>
<g id="PathID_8" transform="matrix(0.882025, 0, 0, 0.882025, 89.7, 271)" opacity="1">
</g>
<g id="PathID_9" transform="matrix(0.882025, 0, 0, 0.882025, 124.8, 271)" opacity="1">
<path style="fill:#384348;fill-opacity:1" d="M15.9 0.45Q13 0.45 10.1 0.25Q7.2 0.1 4.1 -0.55L4.1 -34.95Q6.55 -35.4 9.45 -35.65Q12.4 -35.9 14.9 -35.9Q18.25 -35.9 21.1 -35.4Q23.95 -34.9 26 -33.75Q28.05 -32.55 29.2 -30.65Q30.35 -28.7 30.35 -25.9Q30.35 -21.65 26.25 -19.2Q29.65 -17.9 30.85 -15.7Q32.1 -13.5 32.1 -10.75Q32.1 -5.15 28 -2.35Q23.95 0.45 15.9 0.45M11.85 -15.45L11.85 -6.3L13.75 -6.15L16 -6.1Q19.6 -6.1 21.8 -7.1Q24 -8.15 24 -10.9Q24 -13.35 22.15 -14.4Q20.3 -15.45 16.9 -15.45L11.85 -15.45M11.85 -21.55L15.75 -21.55Q19.45 -21.55 21.05 -22.5Q22.6 -23.45 22.6 -25.55Q22.6 -27.7 21 -28.55Q19.35 -29.45 16.15 -29.45L13.95 -29.4Q12.8 -29.4 11.85 -29.25L11.85 -21.55" />
</g>
<g id="PathID_10" transform="matrix(0.882025, 0, 0, 0.882025, 124.8, 271)" opacity="1">
</g>
<g id="PathID_11" transform="matrix(0.882025, 0, 0, 0.882025, 153.65, 271)" opacity="1">
<path style="fill:#384348;fill-opacity:1" d="M26.55 -0.9Q24.6 -0.35 21.55 0.1Q18.45 0.6 15.1 0.6Q11.65 0.6 9.4 -0.3Q7.1 -1.2 5.75 -2.9Q4.45 -4.55 3.9 -6.85Q3.3 -9.15 3.3 -11.9L3.3 -26.9L10.95 -26.9L10.95 -12.85Q10.95 -9.15 11.9 -7.5Q12.9 -5.9 15.55 -5.9L17.3 -5.95L18.95 -6.15L18.95 -26.9L26.55 -26.9L26.55 -0.9" />
</g>
<g id="PathID_12" transform="matrix(0.882025, 0, 0, 0.882025, 153.65, 271)" opacity="1">
</g>
<g id="PathID_13" transform="matrix(0.882025, 0, 0, 0.882025, 178.8, 271)" opacity="1">
<path style="fill:#384348;fill-opacity:1" d="M11.2 0L3.55 0L3.55 -26.9L11.2 -26.9L11.2 0M11.9 -34.7Q11.9 -32.6 10.55 -31.4Q9.2 -30.2 7.35 -30.2Q5.5 -30.2 4.15 -31.4Q2.8 -32.6 2.8 -34.7Q2.8 -36.8 4.15 -38Q5.5 -39.2 7.35 -39.2Q9.2 -39.2 10.55 -38Q11.9 -36.8 11.9 -34.7" />
</g>
<g id="PathID_14" transform="matrix(0.882025, 0, 0, 0.882025, 178.8, 271)" opacity="1">
</g>
<g id="PathID_15" transform="matrix(0.882025, 0, 0, 0.882025, 190.35, 271)" opacity="1">
<path style="fill:#384348;fill-opacity:1" d="M14.3 0.5Q11 0.45 8.9 -0.2Q6.85 -0.85 5.65 -2.05Q4.45 -3.25 4 -5Q3.55 -6.7 3.55 -8.85L3.55 -38.5L11.2 -39.7L11.2 -10.4Q11.2 -9.35 11.35 -8.55Q11.5 -7.7 11.95 -7.15Q12.4 -6.6 13.2 -6.25Q14 -5.9 15.4 -5.75L14.3 0.5" />
</g>
<g id="PathID_16" transform="matrix(0.882025, 0, 0, 0.882025, 190.35, 271)" opacity="1">
</g>
<g id="PathID_17" transform="matrix(0.882025, 0, 0, 0.882025, 203.2, 271)" opacity="1">
<path style="fill:#384348;fill-opacity:1" d="M10.05 -13.65Q10.05 -10.1 11.65 -7.95Q13.25 -5.8 16.35 -5.8Q17.4 -5.8 18.25 -5.9L19.7 -6.1L19.7 -19.95Q19 -20.4 17.85 -20.7Q16.7 -21.05 15.5 -21.05Q10.05 -21.05 10.05 -13.65M27.35 -0.85L24.95 -0.25L22.2 0.2L19.2 0.55L16.3 0.65Q13 0.65 10.4 -0.3Q7.75 -1.25 6 -3.1Q4.2 -4.9 3.25 -7.5Q2.3 -10.05 2.3 -13.3Q2.3 -16.6 3.1 -19.2Q3.95 -21.85 5.45 -23.7Q7 -25.55 9.25 -26.5Q11.45 -27.5 14.3 -27.5Q15.9 -27.5 17.15 -27.15Q18.4 -26.85 19.7 -26.3L19.7 -38.5L27.35 -39.7L27.35 -0.85" />
</g>
<g id="PathID_18" transform="matrix(0.882025, 0, 0, 0.882025, 203.2, 271)" opacity="1">
</g>
<g id="PathID_19" transform="matrix(0.882025, 0, 0, 0.882025, 238.3, 271)" opacity="1">
<path style="fill:#384348;fill-opacity:1" d="M4.1 0L4.1 -35.45L27.85 -35.45L27.85 -28.75L12.05 -28.75L12.05 -21.35L26.1 -21.35L26.1 -14.65L12.05 -14.65L12.05 0L4.1 0" />
</g>
<g id="PathID_20" transform="matrix(0.882025, 0, 0, 0.882025, 238.3, 271)" opacity="1">
</g>
<g id="PathID_21" transform="matrix(0.882025, 0, 0, 0.882025, 262.75, 271)" opacity="1">
<path style="fill:#384348;fill-opacity:1" d="M13.85 -5.3L16 -5.35L17.65 -5.5L17.65 -11.3L16.25 -11.5L14.6 -11.6Q13.5 -11.6 12.55 -11.5Q11.6 -11.35 10.9 -11Q10.2 -10.65 9.75 -10Q9.35 -9.4 9.35 -8.5Q9.35 -6.7 10.55 -6Q11.75 -5.3 13.85 -5.3M13.25 -27.65Q16.65 -27.65 18.9 -26.85Q21.15 -26.1 22.5 -24.65Q23.85 -23.25 24.4 -21.2Q24.95 -19.15 24.95 -16.65L24.95 -0.75Q23.35 -0.4 20.4 0.05Q17.5 0.55 13.35 0.55Q10.75 0.55 8.6 0.1Q6.5 -0.35 4.95 -1.4Q3.4 -2.45 2.6 -4.15Q1.8 -5.8 1.8 -8.3Q1.8 -10.65 2.75 -12.3Q3.65 -13.9 5.25 -14.9Q6.85 -15.85 8.9 -16.3Q10.95 -16.75 13.15 -16.75Q14.65 -16.75 15.8 -16.6Q16.95 -16.45 17.65 -16.25L17.65 -17Q17.65 -18.95 16.45 -20.1Q15.3 -21.3 12.4 -21.3Q10.45 -21.3 8.55 -21Q6.65 -20.7 5.25 -20.2L4.3 -26.35L5.95 -26.8L8.15 -27.2Q9.3 -27.4 10.6 -27.5Q11.9 -27.65 13.25 -27.65" />
</g>
<g id="PathID_22" transform="matrix(0.882025, 0, 0, 0.882025, 262.75, 271)" opacity="1">
</g>
<g id="PathID_23" transform="matrix(0.882025, 0, 0, 0.882025, 286.2, 271)" opacity="1">
<path style="fill:#384348;fill-opacity:1" d="M2.3 -13.45Q2.3 -16.35 3.25 -18.95Q4.2 -21.55 6 -23.45Q7.75 -25.4 10.35 -26.5Q12.9 -27.65 16.15 -27.65Q18.3 -27.65 20.1 -27.25Q21.9 -26.85 23.6 -26.15L22 -20.05Q20.95 -20.45 19.65 -20.75Q18.35 -21.1 16.8 -21.1Q13.4 -21.1 11.75 -19Q10.05 -16.9 10.05 -13.45Q10.05 -9.8 11.65 -7.8Q13.2 -5.8 17.1 -5.8Q18.45 -5.8 20.05 -6.1Q21.65 -6.35 23 -6.9L24.05 -0.65Q22.7 -0.1 20.7 0.3Q18.75 0.7 16.3 0.7Q12.65 0.7 9.95 -0.35Q7.3 -1.45 5.6 -3.35Q3.9 -5.25 3.1 -7.85Q2.3 -10.45 2.3 -13.45" />
</g>
<g id="PathID_24" transform="matrix(0.882025, 0, 0, 0.882025, 286.2, 271)" opacity="1">
</g>
<g id="PathID_25" transform="matrix(0.882025, 0, 0, 0.882025, 307.35, 271)" opacity="1">
<path style="fill:#384348;fill-opacity:1" d="M3.3 -33.65L10.95 -34.85L10.95 -26.9L20.1 -26.9L20.1 -20.55L10.95 -20.55L10.95 -11.1Q10.95 -8.7 11.8 -7.25Q12.65 -5.8 15.2 -5.8Q16.4 -5.8 17.75 -6.05Q19.05 -6.3 20.1 -6.7L21.2 -0.75Q19.8 -0.2 18.1 0.2Q16.4 0.6 13.95 0.6Q10.85 0.6 8.8 -0.2Q6.75 -1.05 5.5 -2.55Q4.3 -4.1 3.8 -6.25Q3.3 -8.4 3.3 -11L3.3 -33.65" />
</g>
<g id="PathID_26" transform="matrix(0.882025, 0, 0, 0.882025, 307.35, 271)" opacity="1">
</g>
<g id="PathID_27" transform="matrix(0.882025, 0, 0, 0.882025, 325.9, 271)" opacity="1">
<path style="fill:#384348;fill-opacity:1" d="M28.75 -13.5Q28.75 -10.35 27.85 -7.7Q26.9 -5.05 25.2 -3.2Q23.45 -1.3 21 -0.3Q18.55 0.7 15.55 0.7Q12.6 0.7 10.15 -0.3Q7.7 -1.3 6 -3.2Q4.25 -5.05 3.25 -7.7Q2.3 -10.35 2.3 -13.5Q2.3 -16.7 3.3 -19.3Q4.3 -21.9 6.05 -23.75Q7.8 -25.6 10.25 -26.6Q12.7 -27.65 15.55 -27.65Q18.45 -27.65 20.9 -26.6Q23.35 -25.6 25.1 -23.75Q26.8 -21.9 27.8 -19.3Q28.75 -16.7 28.75 -13.5M21 -13.5Q21 -17.05 19.55 -19.05Q18.15 -21.1 15.55 -21.1Q12.95 -21.1 11.5 -19.05Q10.05 -17.05 10.05 -13.5Q10.05 -9.95 11.5 -7.9Q12.95 -5.8 15.55 -5.8Q18.15 -5.8 19.55 -7.9Q21 -9.95 21 -13.5" />
</g>
<g id="PathID_28" transform="matrix(0.882025, 0, 0, 0.882025, 325.9, 271)" opacity="1">
</g>
<g id="PathID_29" transform="matrix(0.882025, 0, 0, 0.882025, 351.85, 271)" opacity="1">
<path style="fill:#384348;fill-opacity:1" d="M19.8 -20.15L17.4 -20.7Q16 -21 14.45 -21Q13.7 -21 12.7 -20.85L11.2 -20.55L11.2 0L3.55 0L3.55 -25.5Q5.6 -26.2 8.4 -26.85Q11.2 -27.5 14.65 -27.5L16.1 -27.4Q17 -27.35 17.85 -27.2L19.6 -26.9Q20.45 -26.7 21.1 -26.45L19.8 -20.15" />
</g>
<g id="PathID_30" transform="matrix(0.882025, 0, 0, 0.882025, 351.85, 271)" opacity="1">
</g>
<g id="PathID_31" transform="matrix(0.882025, 0, 0, 0.882025, 369.4, 271)" opacity="1">
<path style="fill:#384348;fill-opacity:1" d="M27.5 -26.9Q25.2 -19.15 22.65 -12.35Q20.15 -5.5 17.2 0.85Q16.1 3.15 15.05 4.75Q13.95 6.4 12.7 7.45Q11.4 8.5 9.8 8.95Q8.2 9.45 6.05 9.45Q4.25 9.45 2.75 9.15Q1.2 8.8 0.25 8.4L1.55 2.3Q2.75 2.7 3.65 2.85Q4.6 3 5.6 3Q7.65 3 8.75 1.9Q9.85 0.8 10.65 -1.1Q8.05 -6.25 5.4 -12.6Q2.8 -19 0.5 -26.9L8.6 -26.9Q9.1 -24.9 9.8 -22.6L11.25 -17.9L12.8 -13.25L14.3 -9.15Q15 -11 15.7 -13.25L17.1 -17.9L18.45 -22.6L19.6 -26.9L27.5 -26.9" />
</g>
<g id="PathID_32" transform="matrix(0.882025, 0, 0, 0.882025, 369.4, 271)" opacity="1">
</g>
<g id="PathID_33" transform="matrix(0.96448, 0, 0, 0.96448, -161.5, -269)" opacity="1">
<path style="fill:#D61518;fill-opacity:1" d="M319.35 390.3Q319.35 393.55 318.1 396.45Q316.85 399.35 314.7 401.5Q312.55 403.65 309.65 404.9Q306.75 406.15 303.5 406.15Q300.2 406.15 297.3 404.9Q294.4 403.65 292.25 401.5Q290.1 399.35 288.85 396.45Q287.65 393.55 287.65 390.3L287.65 325.9Q287.65 322.6 288.85 319.7Q290.1 316.8 292.25 314.65Q294.4 312.5 297.3 311.25Q300.2 310.05 303.5 310.05L367.9 310.05Q371.15 310.05 374.05 311.25Q376.95 312.5 379.1 314.65Q381.25 316.8 382.5 319.7Q383.75 322.6 383.75 325.9Q383.75 329.15 382.5 332.05Q381.25 334.95 379.1 337.1Q376.95 339.25 374.05 340.5Q371.15 341.75 367.9 341.75L340.3 341.75Q332.7 341.65 328.5 342.75Q324.25 343.9 322.2 346.65Q320.15 349.45 319.7 354.05Q319.25 358.7 319.35 365.65L319.35 390.3" />
</g>
<g id="PathID_34" transform="matrix(0.96448, 0, 0, 0.96448, -161.5, -269)" opacity="1">
</g>
<g id="PathID_35" transform="matrix(0.96448, 0, 0, 0.96448, -161.5, -269)" opacity="1">
<path style="fill:#F1C71D;fill-opacity:1" d="M457.95 390.3L457.95 365.65Q458 358.7 457.55 354.05Q457.1 349.45 455.05 346.65Q453 343.9 448.75 342.75Q444.55 341.65 437 341.75L409.45 341.75Q406.15 341.75 403.25 340.5Q400.35 339.25 398.2 337.1Q396.05 334.95 394.8 332.05Q393.6 329.15 393.6 325.9Q393.6 322.6 394.8 319.7Q396.05 316.8 398.2 314.65Q400.35 312.5 403.25 311.25Q406.15 310.05 409.45 310.05L473.85 310.05Q477.1 310.05 480 311.25Q482.9 312.5 485.05 314.65Q487.2 316.8 488.45 319.7Q489.7 322.6 489.7 325.9L489.7 390.3Q489.7 393.55 488.45 396.45Q487.2 399.35 485.05 401.5Q482.9 403.65 480 404.9Q477.1 406.15 473.85 406.15Q470.55 406.15 467.65 404.9Q464.75 403.65 462.6 401.5Q460.45 399.35 459.2 396.45Q458 393.55 458 390.3L457.95 390.3" />
</g>
<g id="PathID_36" transform="matrix(0.96448, 0, 0, 0.96448, -161.5, -269)" opacity="1">
</g>
<g id="PathID_37" transform="matrix(0.96448, 0, 0, 0.96448, -161.5, -269)" opacity="1">
<path style="fill:#A2C21F;fill-opacity:1" d="M319.35 458.6Q319.25 465.5 319.7 470.1Q320.15 474.7 322.2 477.5Q324.25 480.25 328.5 481.4Q332.7 482.5 340.3 482.45L367.9 482.45Q371.15 482.45 374.05 483.65Q376.95 484.9 379.1 487.05Q381.25 489.2 382.5 492.1Q383.75 495 383.75 498.3Q383.75 501.55 382.5 504.45Q381.25 507.35 379.1 509.5Q376.95 511.65 374.05 512.9Q371.15 514.15 367.9 514.15L303.5 514.15Q300.2 514.15 297.3 512.9Q294.4 511.65 292.25 509.5Q290.1 507.35 288.85 504.45Q287.65 501.55 287.65 498.3L287.65 433.9Q287.65 430.6 288.85 427.7Q290.1 424.8 292.25 422.65Q294.4 420.5 297.3 419.25Q300.2 418.05 303.5 418.05Q306.75 418.05 309.65 419.25Q312.55 420.5 314.7 422.65Q316.85 424.8 318.1 427.7Q319.35 430.6 319.35 433.9L319.35 458.6" />
</g>
<g id="PathID_38" transform="matrix(0.96448, 0, 0, 0.96448, -161.5, -269)" opacity="1">
</g>
<g id="PathID_39" transform="matrix(0.96448, 0, 0, 0.96448, -161.5, -269)" opacity="1">
<path style="fill:#1B94D3;fill-opacity:1" d="M458 433.9Q458 430.6 459.2 427.7Q460.45 424.8 462.6 422.65Q464.75 420.5 467.65 419.25Q470.55 418.05 473.85 418.05Q477.1 418.05 480 419.25Q482.9 420.5 485.05 422.65Q487.2 424.8 488.45 427.7Q489.7 430.6 489.7 433.9L489.7 498.3Q489.7 501.55 488.45 504.45Q487.2 507.35 485.05 509.5Q482.9 511.65 480 512.9Q477.1 514.15 473.85 514.15L409.45 514.15Q406.15 514.15 403.25 512.9Q400.35 511.65 398.2 509.5Q396.05 507.35 394.8 504.45Q393.6 501.55 393.6 498.3Q393.6 495 394.8 492.1Q396.05 489.2 398.2 487.05Q400.35 484.9 403.25 483.65Q406.15 482.45 409.45 482.45L437 482.45Q444.55 482.5 448.75 481.4Q453 480.25 455.05 477.5Q457.1 474.7 457.55 470.1Q458 465.5 457.95 458.6L457.95 433.9L458 433.9" />
</g>
<g id="PathID_40" transform="matrix(0.96448, 0, 0, 0.96448, -161.5, -269)" opacity="1">
</g>
<g id="PathID_41" transform="matrix(0.96448, 0, 0, 0.96448, -161.5, -269)" opacity="1">
<path style="fill:#FF9696;fill-opacity:0.8" d="M349.35 361.55L371.75 361.55Q373.85 361.55 375.75 362.35Q377.65 363.15 379.05 364.6Q380.5 366 381.3 367.9Q382.15 369.8 382.15 371.95L382.15 394.35Q382.15 396.45 381.3 398.35Q380.5 400.25 379.1 401.65Q377.65 403.1 375.8 403.9Q373.9 404.75 371.75 404.75L349.35 404.75Q347.2 404.75 345.3 403.9Q343.4 403.1 342 401.7Q340.55 400.25 339.75 398.4Q338.95 396.5 338.95 394.35L338.95 371.95Q338.9 369.8 339.7 367.9Q340.55 366 341.95 364.6Q343.35 363.15 345.25 362.35Q347.15 361.55 349.35 361.55" />
</g>
<g id="PathID_42" transform="matrix(0.96448, 0, 0, 0.96448, -161.5, -269)" opacity="1">
</g>
<g id="PathID_43" transform="matrix(0.96448, 0, 0, 0.96448, -161.5, -269)" opacity="1">
<path style="fill:#F8E080;fill-opacity:1" d="M432 362.35Q433.9 363.15 435.3 364.6Q436.75 366 437.55 367.9Q438.4 369.8 438.4 371.95L438.4 394.35Q438.4 396.5 437.55 398.4Q436.75 400.25 435.3 401.7Q433.9 403.1 432 403.9Q430.1 404.75 428 404.75L405.6 404.75Q403.4 404.75 401.5 403.9Q399.65 403.1 398.2 401.65Q396.8 400.25 396 398.35Q395.2 396.45 395.2 394.35L395.2 371.95Q395.2 369.8 396 367.9Q396.8 366 398.25 364.6Q399.65 363.15 401.55 362.35Q403.45 361.55 405.6 361.55L428 361.55Q430.1 361.55 432 362.35" />
</g>
<g id="PathID_44" transform="matrix(0.96448, 0, 0, 0.96448, -161.5, -269)" opacity="1">
</g>
<g id="PathID_45" transform="matrix(0.96448, 0, 0, 0.96448, -161.5, -269)" opacity="1">
<path style="fill:#CDE179;fill-opacity:1" d="M345.25 461.8Q343.35 461 341.95 459.55Q340.55 458.15 339.7 456.2Q338.9 454.3 338.95 452.15L338.95 429.75Q338.95 427.6 339.75 425.7Q340.55 423.8 342 422.4Q343.4 420.95 345.3 420.15Q347.2 419.35 349.35 419.35L371.75 419.35Q373.9 419.35 375.8 420.15Q377.65 420.95 379.1 422.4Q380.5 423.8 381.3 425.7Q382.15 427.6 382.15 429.75L382.15 452.25Q382.15 454.4 381.3 456.3Q380.5 458.15 379.05 459.6Q377.65 461 375.75 461.8Q373.85 462.65 371.75 462.65L349.35 462.65Q347.15 462.65 345.25 461.8" />
</g>
<g id="PathID_46" transform="matrix(0.96448, 0, 0, 0.96448, -161.5, -269)" opacity="1">
</g>
<g id="PathID_47" transform="matrix(0.96448, 0, 0, 0.96448, -161.5, -269)" opacity="1">
<path style="fill:#79C2E9;fill-opacity:1" d="M428 462.65L405.6 462.65Q403.45 462.65 401.55 461.8Q399.65 461 398.25 459.6Q396.8 458.15 396 456.3Q395.2 454.4 395.2 452.25L395.2 429.75Q395.2 427.6 396 425.7Q396.8 423.8 398.2 422.4Q399.65 420.95 401.5 420.15Q403.4 419.35 405.6 419.35L428 419.35Q430.1 419.35 432 420.15Q433.9 420.95 435.3 422.4Q436.75 423.8 437.55 425.7Q438.4 427.6 438.4 429.75L438.4 452.15Q438.4 454.3 437.55 456.2Q436.75 458.15 435.3 459.55Q433.9 461 432 461.8Q430.1 462.65 428 462.65" />
</g>
<g id="PathID_48" transform="matrix(0.96448, 0, 0, 0.96448, -161.5, -269)" opacity="1">
</g>
</svg>
